<?xml version="1.0" encoding="UTF-8"?>
<!DOCTYPE svg  PUBLIC '-//W3C//DTD SVG 1.1//EN'  'http://www.w3.org/Graphics/SVG/1.1/DTD/svg11.dtd'>
<svg version="1.1" xmlns="http://www.w3.org/2000/svg">
<defs>
<font id="TruenoBd" horiz-adv-x="600">
<font-face font-family="Trueno" font-weight="700" ascent="800" bbox="-87 -235 1088 938" cap-height="700" descent="-200" panose-1="0 0 8 0 0 0 0 0 0 0" underline-position="-150" underline-thickness="50" unicode-range="U+0020-00FE" units-per-em="1000" x-height="539"/>
<missing-glyph/>
<glyph glyph-name="space" horiz-adv-x="232" unicode=" "/>
<glyph d="M48 76q0 54 45 75q18 8 38 8q55 0 76 -45q8 -18 8 -38q0 -55 -46 -76q-18 -8 -38 -8q-54 0 -75 45q-8 19 -8 39zM52 518v178h164v-178l-30 -278h-104z" glyph-name="exclam" horiz-adv-x="254" unicode="!"/>
<glyph d="M60 427v273h130v-273h-130zM249 427v273h130v-273h-130z" glyph-name="quotedbl" horiz-adv-x="439" unicode='"'/>
<glyph d="M15 156l14 119h136l17 143h-133l13 119h135l20 163h124l-20 -163h140l20 163h124l-20 -163h135l-13 -119h-137l-18 -143h135l-14 -119h-136l-19 -156h-124l19 156h-139l-19 -156h-124l19 156h-135zM289 275h139l18 143h-139z" glyph-name="numbersign" horiz-adv-x="735" unicode="#"/>
<glyph d="M17 106l69 137q81 -71 190 -97q35 -8 63 -8q82 0 90 51q1 5 1 10q0 43 -68 68q-20 8 -70 21q-114 31 -159 63q-72 53 -73 146q0 115 105 172q41 22 92 32v148h132v-143q131 -14 226 -76l-67 -139q-102 59 -198 71q-14 2 -26 2q-70 0 -76 -43q-1 -5 -1 -8q0 -41 66 -66 q20 -8 69 -22q114 -33 160 -66q74 -55 75 -151q0 -122 -113 -179q-51 -24 -115 -32v-151h-132v155q-140 22 -240 105z" glyph-name="dollar" horiz-adv-x="644" unicode="$"/>
<glyph d="M31 492q0 128 87 182q47 29 109 29q117 0 167 -91q28 -51 28 -120q0 -131 -88 -184q-46 -28 -107 -28q-117 0 -167 91q-29 51 -29 121zM142 492q0 -92 56 -114q14 -5 29 -5q61 0 79 69q6 23 6 50q0 92 -56 114q-14 5 -29 5q-61 0 -79 -69q-6 -23 -6 -50zM178 0l500 701 h162l-500 -701h-162zM601 209q0 128 87 182q47 29 109 29q117 0 167 -91q28 -51 28 -120q0 -130 -87 -185q-47 -28 -108 -28q-116 0 -167 90q-29 52 -29 123zM712 209q0 -94 57 -115q13 -5 28 -5q61 0 79 70q6 23 6 50q0 92 -56 114q-14 5 -29 5q-61 0 -79 -69 q-6 -23 -6 -50z" glyph-name="percent" horiz-adv-x="1023" unicode="%"/>
<glyph d="M55 196q0 99 105 167q16 10 34 20q-59 85 -59 157q0 98 84 142q50 26 116 26q112 0 168 -67q32 -39 32 -90q0 -92 -105 -158q-25 -16 -60 -34q54 -59 111 -115q29 51 47 112l110 -78q-26 -68 -64 -124l104 -99l-87 -85l-99 96q-90 -74 -199 -74q-121 0 -189 76 q-49 54 -49 128zM196 208q0 -59 53 -84q24 -11 51 -11q54 1 104 39q-106 106 -143 148q-64 -44 -65 -92zM270 540q1 -45 36 -99q82 45 92 92q2 9 2 17q0 44 -40 57q-11 4 -23 4q-49 0 -63 -45q-4 -13 -4 -26z" glyph-name="ampersand" horiz-adv-x="685" unicode="&amp;"/>
<glyph d="M60 427v273h130v-273h-130z" glyph-name="quotesingle" horiz-adv-x="250" unicode="'"/>
<glyph d="M61 309q0 241 120 421l8 12h155q-115 -184 -121 -412v-21q0 -229 113 -419q4 -8 8 -14h-155q-122 175 -128 414v19z" glyph-name="parenleft" horiz-adv-x="346" unicode="("/>
<glyph d="M51 -124q114 183 120 413v20q0 231 -112 420q-4 7 -8 13h155q123 -175 127 -418v-15q0 -244 -120 -423q-4 -6 -7 -10h-155z" glyph-name="parenright" horiz-adv-x="358" unicode=")"/>
<glyph d="M23 505l83 47l-83 45l43 77l81 -50l-1 95h86l-1 -95l82 48l43 -75l-85 -45l85 -47l-43 -76l-83 51l2 -96h-86l2 96l-82 -49z" glyph-name="asterisk" horiz-adv-x="378" unicode="*"/>
<glyph d="M33 272v109h167v168h109v-168h168v-109h-168v-168h-109v168h-167z" glyph-name="plus" horiz-adv-x="510" unicode="+"/>
<glyph d="M27 -96l45 107q-32 22 -33 65q0 53 45 74q18 8 38 8q53 0 74 -43q8 -18 8 -39q-1 -33 -22 -66l-73 -106h-82z" glyph-name="comma" horiz-adv-x="241" unicode=","/>
<glyph d="M55 252v109h264v-109h-264z" glyph-name="hyphen" horiz-adv-x="374" unicode="-"/>
<glyph d="M38 76q0 55 46 76q18 7 37 7q55 0 76 -45q8 -18 8 -38q0 -55 -46 -76q-18 -8 -38 -8q-56 0 -76 47q-7 17 -7 37z" glyph-name="period" horiz-adv-x="243" unicode="."/>
<glyph d="M-36 -111l323 922h145l-323 -922h-145z" glyph-name="slash" horiz-adv-x="353" unicode="/"/>
<glyph d="M41 351q0 238 151 319q68 36 160 36q199 0 272 -161q37 -81 37 -194q0 -238 -150 -320q-67 -36 -159 -36q-204 0 -276 166q-35 79 -35 190zM224 351q0 -174 69 -212q25 -14 59 -14q89 0 114 99q13 50 13 127q0 177 -72 213q-24 12 -55 12q-87 0 -114 -92 q-14 -50 -14 -133z" glyph-name="zero" horiz-adv-x="703" unicode="0"/>
<glyph d="M7 558v143h307v-701h-178v558h-129z" glyph-name="one" horiz-adv-x="412" unicode="1"/>
<glyph d="M22 603q141 105 284 105q132 0 198 -74q41 -47 41 -109q-1 -98 -132 -233l-142 -151h295v-141h-524v115l250 265q65 71 67 120q0 52 -56 62q-11 2 -23 2q-88 -1 -191 -89z" glyph-name="two" unicode="2"/>
<glyph d="M-2 77l72 135q80 -84 175 -85q91 0 106 67q2 12 2 24q-2 87 -109 88h-112v95l156 162h-255v136h462v-101l-175 -182l33 -5q113 -18 155 -104q19 -40 19 -87q0 -117 -94 -180q-71 -48 -174 -48q-126 0 -228 62q-18 11 -33 23z" glyph-name="three" horiz-adv-x="558" unicode="3"/>
<glyph d="M27 154v119l221 427h171l-208 -411h148v150h165v-150h95v-135h-95v-154h-165v154h-332z" glyph-name="four" horiz-adv-x="633" unicode="4"/>
<glyph d="M14 80l71 135q80 -85 178 -86q89 0 106 66q3 14 3 28q0 68 -71 83q-18 4 -38 4q-118 0 -190 -5v395h459v-141h-297v-113h63q147 0 220 -85q45 -53 45 -126q0 -130 -102 -196q-73 -46 -177 -46q-121 0 -235 65q-19 11 -35 22z" glyph-name="five" horiz-adv-x="595" unicode="5"/>
<glyph d="M41 340q0 190 111 291q86 77 213 77q116 0 210 -49q9 -5 16 -9l-68 -124q-63 45 -147 45q-129 0 -157 -117q-8 -31 -7 -69q54 75 167 75q127 0 188 -91q38 -57 38 -135q0 -133 -100 -198q-67 -44 -162 -44q-166 0 -246 127q-56 89 -56 221zM231 232q0 -64 53 -88 q23 -10 52 -10q80 0 99 65q5 17 5 36q0 75 -68 91q-16 4 -33 4q-76 0 -100 -57q-8 -19 -8 -41z" glyph-name="six" horiz-adv-x="632" unicode="6"/>
<glyph d="M33 559v141h545v-121l-258 -579h-188l250 559h-193v-98z" glyph-name="seven" horiz-adv-x="594" unicode="7"/>
<glyph d="M34 195q0 93 80 151q25 18 53 29q-77 43 -94 119q-3 16 -3 31q0 102 98 151q63 32 152 32q152 0 217 -84q34 -45 34 -104q0 -83 -69 -133q-9 -7 -19 -12q87 -36 115 -118q10 -29 10 -59q0 -112 -107 -168q-73 -38 -180 -38q-169 0 -244 87q-43 49 -43 116zM202 213 q0 -77 86 -90q16 -2 33 -2q109 0 119 78q1 7 1 14q0 73 -81 88q-19 3 -39 3q-104 0 -117 -72q-2 -9 -2 -19zM220 510q0 -66 76 -76q12 -2 25 -2q91 0 100 65q1 7 1 13q0 70 -77 80q-12 1 -24 1q-90 0 -100 -66q-1 -8 -1 -15z" glyph-name="eight" horiz-adv-x="642" unicode="8"/>
<glyph d="M30 467q0 133 100 198q67 44 162 44q166 0 246 -127q56 -89 56 -221q0 -190 -111 -291q-86 -77 -213 -77q-116 0 -210 49q-9 5 -16 9l68 124q63 -45 147 -45q129 0 157 117q8 31 7 69q-54 -75 -167 -75q-127 0 -188 91q-38 57 -38 135zM195 466q0 -75 68 -91q16 -4 33 -4 q76 0 100 57q8 19 8 41q0 64 -53 88q-23 10 -52 10q-80 0 -99 -65q-5 -17 -5 -36z" glyph-name="nine" horiz-adv-x="632" unicode="9"/>
<glyph d="M38 76q0 55 46 76q18 7 37 7q55 0 76 -45q8 -18 8 -38q0 -55 -46 -76q-18 -8 -38 -8q-56 0 -76 47q-7 17 -7 37zM38 373q0 55 46 76q18 7 37 7q55 0 76 -45q8 -18 8 -38q0 -55 -46 -76q-18 -8 -38 -8q-56 0 -76 47q-7 17 -7 37z" glyph-name="colon" horiz-adv-x="240" unicode=":"/>
<glyph d="M27 -96l45 107q-32 22 -33 65q0 53 45 74q18 8 38 8q53 0 74 -43q8 -18 8 -39q-1 -33 -22 -66l-73 -106h-82zM38 373q0 55 46 76q18 7 37 7q55 0 76 -45q8 -18 8 -38q0 -55 -46 -76q-18 -8 -38 -8q-56 0 -76 47q-7 17 -7 37z" glyph-name="semicolon" horiz-adv-x="242" unicode=";"/>
<glyph d="M33 255v139l444 185v-122l-332 -133l332 -133v-121z" glyph-name="less" horiz-adv-x="510" unicode="&lt;"/>
<glyph d="M33 165v109h444v-109h-444zM33 380v109h444v-109h-444z" glyph-name="equal" horiz-adv-x="510" unicode="="/>
<glyph d="M32 77v122l333 133l-333 133v121l445 -185v-139z" glyph-name="greater" horiz-adv-x="510" unicode="&gt;"/>
<glyph d="M3 476q2 146 108 201q52 26 120 26q147 0 196 -91q19 -37 19 -83q0 -75 -60 -140q-7 -8 -23 -24q-50 -50 -62 -82q-8 -21 -8 -44h-129q0 82 54 144q6 7 18 19q40 43 48 72q3 13 3 27q-2 64 -72 65q-77 0 -79 -89v-2zM143 76q0 55 46 76q18 7 37 7q55 0 76 -45 q8 -18 8 -38q0 -55 -46 -76q-18 -8 -38 -8q-56 0 -76 47q-7 17 -7 37z" glyph-name="question" horiz-adv-x="472" unicode="?"/>
<glyph d="M24 268q0 171 115 294q112 119 279 136q24 2 47 2q179 0 299 -114q121 -115 129 -290v-22q0 -138 -79 -205q-49 -41 -113 -41q-98 1 -117 78l-2 13q-56 -79 -151 -80q-93 0 -158 70q-60 67 -60 161q0 114 72 183q55 52 133 52q74 0 125 -50q8 -9 11 -14v53h122v-337 q1 -48 37 -49q38 0 63 57q20 46 20 106q0 159 -100 254q-91 85 -231 85t-240 -97q-99 -106 -103 -245q0 -145 100 -239q94 -87 230 -87q98 0 177 53q7 4 12 8l46 -80q-72 -54 -186 -69q-26 -3 -49 -3q-176 0 -298 112q-119 110 -129 279q-1 13 -1 26zM346 275q0 -73 45 -109 q24 -18 53 -18q63 0 90 63q12 29 12 63q0 72 -49 104q-24 16 -54 16q-56 0 -83 -56q-14 -29 -14 -63z" glyph-name="at" horiz-adv-x="917" unicode="@"/>
<glyph d="M-5 0l302 700h183l295 -700h-190l-50 129h-306l-51 -129h-183zM281 264h202l-100 259z" glyph-name="A" horiz-adv-x="770" unicode="A"/>
<glyph d="M70 0v700h331q158 0 224 -80q33 -41 33 -95q0 -86 -71 -132q-22 -14 -49 -22q91 -18 127 -97q17 -37 17 -80q0 -109 -104 -160q-68 -34 -165 -34h-343zM247 137h144q84 0 103 53q4 13 4 26q0 54 -62 71q-21 5 -45 5h-144v-155zM247 420h144q64 0 81 47q4 12 4 26 q0 55 -56 68q-14 3 -29 3h-144v-144z" glyph-name="B" horiz-adv-x="715" unicode="B"/>
<glyph d="M24 352q0 151 106 252q108 102 268 102q128 0 235 -78q26 -19 47 -40l-103 -122q-60 73 -145 88q-16 3 -31 3q-95 0 -152 -74q-43 -55 -43 -129q0 -102 72 -162q53 -44 123 -44q81 0 156 63q11 10 20 19l104 -110q-91 -93 -217 -120q-37 -8 -72 -8q-159 0 -264 104 q-104 104 -104 256z" glyph-name="C" horiz-adv-x="692" unicode="C"/>
<glyph d="M70 0v700h301q177 0 281 -109q91 -96 91 -241q0 -163 -114 -261q-105 -89 -265 -89h-294zM248 142h127q98 0 151 78q36 55 36 129q0 112 -77 171q-51 38 -118 38h-119v-416z" glyph-name="D" horiz-adv-x="767" unicode="D"/>
<glyph d="M70 0v700h548v-140h-370v-139h334v-140h-334v-141h381v-140h-559z" glyph-name="E" horiz-adv-x="674" unicode="E"/>
<glyph d="M70 0v700h519v-140h-341v-162h314v-140h-314v-258h-178z" glyph-name="F" horiz-adv-x="604" unicode="F"/>
<glyph d="M24 350q0 151 108 252q111 104 278 104q133 0 243 -72q24 -15 43 -32l-100 -121q-73 67 -168 75q-10 1 -19 1q-98 0 -157 -74q-46 -57 -46 -133q0 -102 74 -163q56 -46 131 -46q56 1 124 34v181h154v-273q-93 -66 -223 -86q-36 -5 -68 -5q-161 0 -268 104 q-106 103 -106 254z" glyph-name="G" horiz-adv-x="743" unicode="G"/>
<glyph d="M70 0v700h178v-288h290v288h178v-700h-178v272h-290v-272h-178z" glyph-name="H" horiz-adv-x="786" unicode="H"/>
<glyph d="M70 0v700h178v-700h-178z" glyph-name="I" horiz-adv-x="318" unicode="I"/>
<glyph d="M-5 104l82 119q78 -72 147 -78q67 0 74 71q1 8 1 15v470h179v-474q0 -146 -109 -205q-56 -30 -133 -30q-143 1 -241 112z" glyph-name="J" horiz-adv-x="536" unicode="J"/>
<glyph d="M70 0v700h178v-303l268 303h206l-260 -290l277 -410h-213l-185 275l-93 -103v-172h-178z" glyph-name="K" horiz-adv-x="747" unicode="K"/>
<glyph d="M70 0v700h178v-551h297v-149h-475z" glyph-name="L" horiz-adv-x="560" unicode="L"/>
<glyph d="M70 0v701h195l190 -417l190 417h194v-701h-157l-1 455l-168 -385h-116l-168 385v-455h-159z" glyph-name="M" horiz-adv-x="910" unicode="M"/>
<glyph d="M70 0v700h157l323 -432v432h166v-700h-157l-322 431v-431h-167z" glyph-name="N" horiz-adv-x="786" unicode="N"/>
<glyph d="M24 351q0 153 108 254q109 101 270 101q165 0 274 -104q105 -102 105 -251q0 -152 -107 -254q-109 -105 -272 -105t-271 104q-107 103 -107 255zM206 350q0 -99 72 -162q56 -47 126 -47q91 0 149 73q45 59 45 136q0 101 -72 162q-53 45 -122 45q-91 0 -150 -71 q-48 -58 -48 -136z" glyph-name="O" horiz-adv-x="805" unicode="O"/>
<glyph d="M70 0v700h305q189 0 254 -121q28 -53 28 -123q0 -164 -127 -227q-65 -32 -155 -32h-127v-197h-178zM248 337h118q104 0 120 84q3 14 3 29q0 97 -98 109q-12 1 -25 1h-118v-223z" glyph-name="P" horiz-adv-x="680" unicode="P"/>
<glyph d="M24 351q0 153 108 254q109 101 270 101q165 0 274 -104q105 -102 105 -251q0 -152 -106 -255q-55 -52 -127 -79q39 -47 85 -48q52 1 120 53l63 -110q-73 -65 -175 -75q-15 -2 -28 -2q-116 0 -192 101q-19 26 -33 56q-161 5 -265 111q-99 102 -99 248zM206 350 q0 -99 72 -162q56 -47 126 -47q91 0 149 73q45 59 45 136q0 101 -72 162q-53 45 -122 45q-91 0 -150 -71q-48 -58 -48 -136z" glyph-name="Q" horiz-adv-x="810" unicode="Q"/>
<glyph d="M70 0v700h313q196 0 263 -122q28 -52 28 -122q-1 -161 -127 -225l147 -231h-202l-104 197h-5h-135v-197h-178zM248 337h135q102 0 119 83q3 14 3 30q0 96 -95 108q-13 2 -27 2h-135v-223z" glyph-name="R" horiz-adv-x="724" unicode="R"/>
<glyph d="M17 106l69 137q81 -71 190 -97q35 -8 63 -8q82 0 90 51q1 5 1 10q0 43 -68 68q-20 8 -70 21q-114 31 -159 63q-72 53 -73 146q0 114 103 171q72 40 176 40q143 0 259 -68q9 -5 17 -10l-67 -139q-102 59 -198 71q-14 2 -26 2q-70 0 -76 -43q-1 -5 -1 -8q0 -41 66 -66 q20 -8 69 -22q114 -33 160 -66q74 -55 75 -151q0 -121 -113 -178q-71 -36 -167 -36q-150 0 -278 81q-23 15 -42 31z" glyph-name="S" horiz-adv-x="644" unicode="S"/>
<glyph d="M7 557v144h598v-144h-211v-557h-178v557h-209z" glyph-name="T" horiz-adv-x="611" unicode="T"/>
<glyph d="M58 294v406h178v-406q0 -95 70 -134q34 -19 76 -19q87 0 123 71q18 36 18 82v406h177v-406q0 -162 -114 -244q-83 -58 -205 -58q-174 0 -261 109q-62 79 -62 193z" glyph-name="U" horiz-adv-x="758" unicode="U"/>
<glyph d="M-1 700h190l179 -515l179 515h183l-275 -700h-184z" glyph-name="V" horiz-adv-x="729" unicode="V"/>
<glyph d="M-1 700h190l137 -515l134 515h174l137 -515l135 515h182l-231 -700h-183l-130 484l-132 -484h-184z" glyph-name="W" horiz-adv-x="1081" unicode="W"/>
<glyph d="M5 0l250 358l-234 342h207l135 -204l135 204h209l-231 -334l251 -366h-213l-151 223l-151 -223h-207z" glyph-name="X" horiz-adv-x="734" unicode="X"/>
<glyph d="M-5 700h178l169 -305l165 305h178l-254 -474v-226h-177v221z" glyph-name="Y" horiz-adv-x="680" unicode="Y"/>
<glyph d="M28 0v114l375 445h-362v141h599v-114l-374 -445h380v-141h-618z" glyph-name="Z" horiz-adv-x="675" unicode="Z"/>
<glyph d="M70 -124v866h274v-128h-120v-610h120v-128h-274z" glyph-name="bracketleft" horiz-adv-x="362" unicode="["/>
<glyph d="M13 811h145l323 -922h-145z" glyph-name="backslash" horiz-adv-x="455" unicode="\"/>
<glyph d="M89 4h120v610h-120v128h274v-866h-274v128z" glyph-name="bracketright" horiz-adv-x="433" unicode="]"/>
<glyph d="M32 138l186 387h139l185 -387h-122l-133 289l-133 -289h-122z" glyph-name="asciicircum" horiz-adv-x="575" unicode="^"/>
<glyph d="M0 -110h583v-94h-583v94z" glyph-name="underscore" horiz-adv-x="583" unicode="_"/>
<glyph d="M41 713l156 55l106 -168h-132z" glyph-name="grave" horiz-adv-x="350" unicode="`"/>
<glyph d="M27 161q0 115 113 150q42 12 94 13h142v8q0 73 -81 84q-12 1 -24 1q-73 -1 -161 -45l-49 114q132 61 250 61q157 0 211 -99q23 -42 24 -96v-352h-169v62q-54 -70 -165 -70q-112 0 -160 77q-25 40 -25 92zM189 173q0 -49 50 -61q13 -3 26 -3q65 0 97 45q10 14 14 29v48 h-109q-77 -2 -78 -58z" glyph-name="a" unicode="a"/>
<glyph d="M74 0v742h173v-274q61 76 161 77q131 0 201 -99q52 -73 52 -179q0 -148 -94 -223q-64 -50 -155 -50q-106 1 -165 78v-72h-173zM247 272q0 -87 58 -124q28 -17 61 -17q71 0 104 64q17 34 17 77q0 84 -57 122q-29 18 -64 18q-69 0 -102 -63q-17 -34 -17 -77z" glyph-name="b" horiz-adv-x="685" unicode="b"/>
<glyph d="M24 268q0 142 99 219q74 58 181 58q146 0 223 -96q9 -13 17 -25l-124 -75q-41 55 -109 56q-67 0 -98 -63q-15 -32 -15 -73q0 -88 58 -122q25 -15 55 -15q76 1 110 61l126 -74q-58 -105 -197 -122q-24 -3 -48 -3q-143 0 -220 96q-58 73 -58 178z" glyph-name="c" horiz-adv-x="562" unicode="c"/>
<glyph d="M25 272q0 148 94 223q64 51 154 51q107 -1 166 -78v274h173v-742h-173v71q-60 -77 -162 -78q-132 0 -201 100q-51 73 -51 179zM198 268q1 -87 59 -124q28 -17 62 -17q72 0 104 65q16 34 16 76q0 87 -59 123q-27 17 -61 17q-73 0 -105 -66q-15 -33 -16 -74z" glyph-name="d" horiz-adv-x="686" unicode="d"/>
<glyph d="M24 268q0 143 100 220q74 57 181 57q179 0 243 -137q35 -77 29 -185h-379q22 -84 100 -98q13 -2 27 -2q74 1 129 55l91 -89q-88 -95 -235 -95q-155 0 -233 103q-53 70 -53 171zM195 316h216q0 72 -55 98q-23 11 -49 11q-70 0 -100 -69q-8 -19 -12 -40z" glyph-name="e" horiz-adv-x="602" unicode="e"/>
<glyph d="M28 401v114h73v50q0 109 90 158q51 27 116 27q86 0 151 -38l-61 -121q-30 22 -63 22q-47 1 -59 -38q-3 -10 -3 -21v-39h122v-114h-122v-401h-171v401h-73z" glyph-name="f" horiz-adv-x="386" unicode="f"/>
<glyph d="M25 290q0 137 87 208q60 47 141 47q103 1 159 -72v66h172v-490q0 -132 -105 -201q-77 -49 -187 -49q-135 1 -240 71l60 117q78 -54 167 -54q92 0 122 62q11 23 11 49v57q-56 -72 -155 -72q-117 0 -183 91q-49 70 -49 170zM186 285q0 -81 56 -115q26 -16 58 -16 q67 0 97 61q15 31 15 70q0 84 -57 117q-25 15 -55 15q-69 0 -99 -62q-15 -31 -15 -70z" glyph-name="g" horiz-adv-x="647" unicode="g"/>
<glyph d="M74 0v742h173v-292q58 95 181 97q113 0 166 -86q31 -51 31 -121v-340h-173v292q0 75 -57 96q-18 6 -38 6q-70 0 -98 -64q-12 -29 -12 -64v-266h-173z" glyph-name="h" horiz-adv-x="678" unicode="h"/>
<glyph d="M65 694q0 57 47 81q20 10 44 10q57 0 81 -47q10 -20 10 -44q0 -58 -47 -82q-21 -10 -44 -10q-57 0 -81 48q-10 20 -10 44zM69 0v539h172v-539h-172z" glyph-name="i" horiz-adv-x="311" unicode="i"/>
<glyph d="M-87 -166l44 121q32 -19 61 -19q49 7 53 59v544h173v-555q0 -113 -89 -161q-47 -24 -107 -24q-79 1 -135 35zM59 693q0 57 50 81q22 11 48 11q63 0 88 -49q10 -20 10 -43q0 -56 -49 -80q-23 -11 -49 -11q-61 0 -87 47q-11 21 -11 44z" glyph-name="j" horiz-adv-x="319" unicode="j"/>
<glyph d="M74 0v742h173v-392l178 189h196l-198 -207l204 -332h-205l-117 208l-58 -61v-147h-173z" glyph-name="k" horiz-adv-x="630" unicode="k"/>
<glyph d="M74 0v742h173v-742h-173z" glyph-name="l" horiz-adv-x="321" unicode="l"/>
<glyph d="M69 0v539h172v-89q56 95 178 97q111 0 163 -85q10 -18 17 -37q54 120 190 122q113 0 164 -87q30 -51 30 -120v-340h-172v292q0 76 -57 97q-17 6 -36 6q-67 -2 -94 -66q-11 -29 -11 -62v-267h-173v292q0 77 -57 97q-17 6 -35 6q-69 -2 -95 -66q-12 -29 -12 -62v-267h-172z " glyph-name="m" horiz-adv-x="1037" unicode="m"/>
<glyph d="M69 0v539h173v-88q58 94 180 96q113 0 166 -86q31 -51 31 -121v-340h-172v292q0 73 -56 95q-18 7 -39 7q-71 0 -99 -66q-8 -20 -11 -43v-285h-173z" glyph-name="n" horiz-adv-x="673" unicode="n"/>
<glyph d="M24 270q0 143 104 219q78 56 191 56q153 0 235 -98q59 -73 59 -177q0 -141 -102 -218q-78 -58 -192 -58q-153 0 -235 98q-60 73 -60 178zM198 268q0 -87 60 -124q27 -16 61 -16q72 0 104 65q16 33 16 75q0 86 -58 123q-28 17 -62 17q-72 0 -104 -64q-17 -34 -17 -76z" glyph-name="o" horiz-adv-x="637" unicode="o"/>
<glyph d="M74 -194v733h173v-71q61 76 161 77q131 0 201 -99q52 -73 52 -179q0 -148 -94 -223q-64 -50 -155 -50q-106 1 -165 78v-266h-173zM247 272q0 -87 58 -124q28 -17 61 -17q71 0 104 64q17 34 17 77q0 84 -57 122q-29 18 -64 18q-69 0 -102 -63q-17 -34 -17 -77z" glyph-name="p" horiz-adv-x="685" unicode="p"/>
<glyph d="M25 272q0 148 94 223q64 51 154 51q107 -1 166 -78v71h173v-733h-173v265q-60 -77 -162 -78q-132 0 -201 100q-51 73 -51 179zM198 268q1 -87 59 -124q28 -17 62 -17q72 0 104 65q16 34 16 76q0 87 -59 123q-27 17 -61 17q-73 0 -105 -66q-15 -33 -16 -74z" glyph-name="q" horiz-adv-x="686" unicode="q"/>
<glyph d="M69 0v539h173v-91q58 97 175 99v-156q-107 10 -153 -56q-18 -26 -22 -58v-277h-173z" glyph-name="r" horiz-adv-x="427" unicode="r"/>
<glyph d="M16 69l55 110q95 -67 191 -67q55 4 59 37q0 28 -55 46q-12 5 -40 13q-98 28 -135 59q-48 42 -48 109q0 103 97 147q53 24 122 24q119 -1 222 -61l-59 -112q-100 54 -170 54q-51 -3 -53 -37q0 -26 57 -44q11 -4 37 -12q101 -29 140 -61q49 -42 49 -109q0 -102 -98 -147 q-56 -25 -129 -25q-143 1 -242 76z" glyph-name="s" horiz-adv-x="513" unicode="s"/>
<glyph d="M19 401v113h75v150h172v-149h141v-114h-141v-211q2 -60 50 -59q25 0 67 18l34 -120q-63 -37 -144 -37q-111 0 -156 78q-23 40 -23 93v238h-75z" glyph-name="t" horiz-adv-x="435" unicode="t"/>
<glyph d="M53 199v340h173v-291q0 -75 55 -97q17 -6 35 -6q68 1 94 66q11 28 11 62v266h173v-539h-173v89q-57 -95 -175 -96q-112 0 -163 86q-30 51 -30 120z" glyph-name="u" horiz-adv-x="663" unicode="u"/>
<glyph d="M-5 539h178l116 -381l117 381h172l-203 -539h-177z" glyph-name="v" horiz-adv-x="571" unicode="v"/>
<glyph d="M-5 539h176l111 -373l108 373h165l111 -373l109 373h169l-197 -539h-171l-106 342l-106 -342h-172z" glyph-name="w" horiz-adv-x="937" unicode="w"/>
<glyph d="M4 0l184 276l-172 263h198l90 -155l96 155h189l-171 -262l183 -277h-199l-98 169l-110 -169h-190z" glyph-name="x" horiz-adv-x="606" unicode="x"/>
<glyph d="M-12 539h178l132 -358l117 358h172l-233 -595q-61 -145 -208 -146q-86 1 -157 55l72 118q37 -29 71 -29q46 1 67 43l13 27z" glyph-name="y" horiz-adv-x="580" unicode="y"/>
<glyph d="M34 0v104l265 305h-255v130h471v-104l-264 -305h273v-130h-490z" glyph-name="z" horiz-adv-x="553" unicode="z"/>
<glyph d="M24 243v132h39q33 0 36 31q1 6 1 12v186q0 91 56 119q40 20 119 20h67v-127q-69 0 -83 -32q-5 -13 -5 -33v-122q0 -80 -46 -106q-16 -9 -38 -14q64 -15 78 -68q6 -22 6 -53v-121q0 -46 34 -58q20 -7 54 -7v-128h-67q-121 0 -155 52q-20 32 -20 88v185q-7 41 -37 44h-39z " glyph-name="braceleft" horiz-adv-x="356" unicode="{"/>
<glyph d="M85 -110v913h129v-913h-129z" glyph-name="bar" horiz-adv-x="299" unicode="|"/>
<glyph d="M67 2q70 0 83 33q5 13 5 32v121q0 79 43 105q17 10 41 15q-63 15 -78 66q-6 23 -6 55v122q0 47 -35 59q-20 6 -53 6v127h66q120 0 154 -50q21 -32 21 -89v-186q0 -38 28 -42q5 -1 10 -1h38v-132h-38q-34 0 -37 -32q-1 -6 -1 -12v-185q0 -92 -57 -120q-40 -20 -118 -20 h-66v128z" glyph-name="braceright" horiz-adv-x="391" unicode="}"/>
<glyph d="M56 242q1 169 113 170q40 0 94 -33q30 -18 43 -18q32 2 33 46h115q-1 -169 -113 -170q-40 0 -94 33q-30 18 -43 18q-31 -2 -32 -46h-116z" glyph-name="asciitilde" horiz-adv-x="510" unicode="~"/>
<glyph glyph-name="nbspace" horiz-adv-x="232" unicode=" "/>
<glyph d="M51 21l30 277h104l30 -277v-179h-164v179zM52 462q0 56 46 77q18 8 38 8q53 0 74 -45q9 -19 9 -40q0 -54 -45 -75q-18 -8 -38 -8q-56 0 -77 47q-7 17 -7 36z" glyph-name="exclamdown" horiz-adv-x="254" unicode="¡"/>
<glyph d="M24 268q0 142 99 220q51 39 120 52v159h134v-161q112 -26 167 -114l-124 -75q-41 55 -109 56q-67 0 -98 -63q-15 -32 -15 -73q0 -88 58 -122q25 -15 55 -15q76 1 110 61l126 -74q-53 -93 -170 -118v-155h-134v153q-128 22 -185 128q-34 62 -34 141z" glyph-name="cent" horiz-adv-x="559" unicode="¢"/>
<glyph d="M28 0v134h76v147h-76v118h76v75q0 157 118 211q52 23 120 23q124 0 210 -83l3 -3l-67 -130q-64 66 -127 67q-77 -2 -78 -89v-71h167v-118h-167v-147h258v-134h-513z" glyph-name="sterling" horiz-adv-x="557" unicode="£"/>
<glyph d="M24 88l102 102q-36 60 -36 131q1 70 34 127l-100 99l97 97l99 -99q61 35 130 35q70 0 132 -35l98 99l97 -97l-99 -99q34 -58 34 -127q-1 -73 -37 -131l102 -102l-97 -97l-103 104q-61 -32 -127 -32t-125 32l-104 -104zM225 321q0 -63 52 -100q34 -23 73 -23q66 0 104 53 q23 32 23 70q0 64 -53 102q-34 23 -74 23q-64 0 -102 -52q-23 -34 -23 -73z" glyph-name="currency" horiz-adv-x="701" unicode="¤"/>
<glyph d="M-5 701h178l169 -307l165 307h178l-194 -362h115v-65h-150l-25 -47v-18h175v-66h-175v-143h-177v143h-185v66h185v13l-28 52h-157v65h122z" glyph-name="yen" horiz-adv-x="665" unicode="¥"/>
<glyph d="M85 -110v343h129v-343h-129zM85 461v342h129v-342h-129z" glyph-name="brokenbar" horiz-adv-x="299" unicode="¦"/>
<glyph d="M16 -11l49 107q100 -68 192 -68q58 0 68 30q2 5 2 9q0 29 -60 51q-14 5 -45 15q-104 33 -142 65q-47 41 -48 102q0 88 95 128l10 4q-62 33 -70 79q-2 11 -2 24q0 86 83 130q56 29 134 29q115 -1 223 -61l-52 -106q-102 53 -169 53q-59 -5 -64 -38q0 -30 61 -52 q14 -5 46 -15q105 -33 144 -65q48 -41 49 -103q0 -72 -67 -116q-15 -10 -32 -17q51 -30 61 -67q4 -16 4 -35q0 -85 -84 -129q-59 -31 -141 -31q-137 1 -245 77zM186 311q0 -34 50 -48q24 -7 51 -7q72 2 74 42q0 33 -50 48q-24 7 -52 7q-72 -1 -73 -42z" glyph-name="section" horiz-adv-x="545" unicode="§"/>
<glyph d="M1 692q0 51 43 71q16 7 35 7q50 0 70 -43q7 -17 7 -35q0 -52 -44 -71q-16 -7 -33 -7q-52 0 -71 44q-7 16 -7 34zM194 692q0 51 43 71q16 7 35 7q49 0 70 -42q8 -17 8 -36q0 -51 -43 -71q-17 -7 -35 -7q-52 0 -71 44q-7 16 -7 34z" glyph-name="dieresis" horiz-adv-x="368" unicode="¨"/>
<glyph d="M24 348q0 137 94 236q106 101 245 105q140 0 239 -98q96 -104 99 -241q0 -137 -95 -236q-96 -101 -234 -105h-11q-140 0 -238 98q-96 104 -99 241zM104 348q0 -113 81 -190q74 -69 176 -69q115 0 192 84q69 76 69 177q0 113 -82 190q-75 69 -177 69q-116 0 -192 -86 q-67 -75 -67 -175zM194 349q0 85 68 133q47 33 107 33q73 0 126 -49l6 -6l-48 -57q-36 41 -82 42q-55 0 -81 -47q-12 -22 -12 -47q0 -57 46 -84q22 -13 47 -13q44 1 82 38l48 -51q-60 -57 -135 -60q-89 0 -139 66q-33 45 -33 102z" glyph-name="copyright" horiz-adv-x="725" unicode="©"/>
<glyph d="M21 553q0 79 92 93q19 3 39 3h87v5q-2 45 -63 46q-44 0 -106 -24l-28 76q87 33 162 33q112 0 142 -70q9 -21 9 -47v-210h-116v41q-35 -46 -105 -46q-79 0 -104 57q-9 20 -9 43zM133 562q7 -32 42 -36q43 1 64 35v34h-62q-43 -1 -44 -33z" glyph-name="ordfeminine" horiz-adv-x="393" unicode="ª"/>
<glyph d="M2 266l120 184h140l-106 -184l106 -184h-140zM224 266l120 184h140l-107 -184l107 -184h-140z" glyph-name="guillemotleft" horiz-adv-x="502" unicode="«"/>
<glyph d="M33 317v109h481v-289h-124v180h-357z" glyph-name="logicalnot" horiz-adv-x="578" unicode="¬"/>
<glyph d="M55 252v109h264v-109h-264z" glyph-name="softhyphen" horiz-adv-x="374" unicode="­"/>
<glyph d="M24 348q0 137 94 236q106 101 245 105q140 0 239 -98q96 -104 99 -241q0 -137 -95 -236q-96 -101 -234 -105h-11q-140 0 -238 98q-96 104 -99 241zM104 348q0 -113 81 -190q74 -69 176 -69q115 0 192 84q69 76 69 177q0 113 -82 190q-75 69 -177 69q-116 0 -192 -86 q-67 -75 -67 -175zM234 200v320h138q109 0 129 -78q4 -16 4 -33q-1 -74 -58 -104l68 -105h-91l-48 90h-4h-59v-90h-79zM313 352h59q50 0 56 44q1 5 1 10q-7 49 -57 53h-59v-107z" glyph-name="registered" horiz-adv-x="725" unicode="®"/>
<glyph d="M36 632v116h278v-116h-278z" glyph-name="macron" horiz-adv-x="350" unicode="¯"/>
<glyph d="M83 699q0 61 51 97q31 21 68 21q63 0 98 -52q21 -30 21 -66q0 -62 -52 -97q-31 -21 -67 -21q-61 0 -97 50q-22 31 -22 68zM150 699q0 -32 31 -46q10 -5 21 -5q33 0 47 30q5 10 5 21q0 33 -30 46q-11 5 -22 5q-33 0 -47 -30q-5 -10 -5 -21z" glyph-name="degree" horiz-adv-x="374" unicode="°"/>
<glyph d="M33 2v110h444v-110h-444zM33 348v105h167v162h109v-162h168v-105h-168v-161h-109v161h-167z" glyph-name="plusminus" horiz-adv-x="510" unicode="±"/>
<glyph d="M18 641q92 64 183 64q94 0 133 -54q18 -26 18 -56q-1 -61 -83 -140l-82 -81h176v-91h-331v75l155 155q37 40 38 65q-2 31 -43 32q-54 -1 -118 -53z" glyph-name="twosuperior" horiz-adv-x="389" unicode="²"/>
<glyph d="M5 330l49 89q49 -53 108 -54q56 6 60 49q-2 46 -61 47h-72v61l94 92h-157v85h295v-67l-104 -99l20 -4q75 -12 97 -73q7 -19 7 -41q0 -78 -71 -115q-42 -22 -98 -22q-91 0 -158 45q-5 4 -9 7z" glyph-name="threesuperior" horiz-adv-x="365" unicode="³"/>
<glyph d="M44 600l106 168l156 -55l-130 -113h-132z" glyph-name="acute" horiz-adv-x="350" unicode="´"/>
<glyph d="M74 -194v733h173v-291q0 -75 55 -97q17 -6 35 -6q68 1 94 66q11 28 11 62v266h173v-539h-173v89q-57 -95 -175 -96l-20 1v-188h-173z" glyph-name="mu" horiz-adv-x="684" unicode="µ"/>
<glyph d="M-6 529q0 114 85 172q62 41 158 41h343v-849h-129v752h-100v-752h-128v432h-27q-138 0 -185 114q-17 43 -17 90z" glyph-name="paragraph" horiz-adv-x="650" unicode="¶"/>
<glyph d="M38 289q0 53 44 74q17 8 37 8q53 0 74 -44q8 -18 8 -38q0 -53 -44 -74q-18 -8 -38 -8q-52 0 -73 44q-8 18 -8 38z" glyph-name="periodcentered" horiz-adv-x="240" unicode="·"/>
<glyph d="M65 -204l32 71q22 -19 49 -20q33 0 41 27q1 6 1 10q0 28 -32 35q-7 1 -14 1q-13 0 -36 -4l47 98h97l-33 -65q57 -15 67 -65q1 -8 1 -16q0 -65 -62 -91q-29 -12 -63 -12q-50 1 -95 31z" glyph-name="cedilla" horiz-adv-x="350" unicode="¸"/>
<glyph d="M10 607v93h201v-417h-122v324h-79z" glyph-name="onesuperior" horiz-adv-x="274" unicode="¹"/>
<glyph d="M20 619q0 96 79 140q46 26 107 26q112 0 161 -74q26 -40 26 -92q0 -95 -78 -139q-47 -26 -109 -26q-110 0 -160 74q-26 39 -26 91zM139 618q0 -56 42 -72q12 -4 25 -4q47 0 62 45q5 15 5 31q0 56 -42 72q-12 4 -25 4q-47 0 -62 -45q-5 -15 -5 -31z" glyph-name="ordmasculine" horiz-adv-x="413" unicode="º"/>
<glyph d="M35 82l106 184l-106 184h140l120 -184l-120 -184h-140zM257 82l106 184l-106 184h140l120 -184l-120 -184h-140z" glyph-name="guillemotright" horiz-adv-x="508" unicode="»"/>
<glyph d="M10 607v93h201v-417h-122v324h-79zM67 0l500 701h162l-500 -701h-162zM490 87v79l134 251h117l-127 -246h83v89h113v-89h58v-84h-58v-87h-113v87h-207z" glyph-name="onequarter" horiz-adv-x="881" unicode="¼"/>
<glyph d="M10 607v93h201v-417h-122v324h-79zM67 0l500 701h162l-500 -701h-162zM531 358q92 64 183 64q94 0 133 -55q18 -25 18 -56q-1 -60 -83 -139l-82 -82h176v-90h-331v75l155 154q37 42 38 66q-4 30 -43 32q-52 -1 -118 -53z" glyph-name="onehalf" horiz-adv-x="902" unicode="½"/>
<glyph d="M5 330l49 89q49 -53 108 -54q56 6 60 49q-2 46 -61 47h-72v61l94 92h-157v85h295v-67l-104 -99l20 -4q75 -12 97 -73q7 -19 7 -41q0 -78 -71 -115q-42 -22 -98 -22q-91 0 -158 45q-5 4 -9 7zM127 0l500 701h162l-500 -701h-162zM549 87v79l134 251h117l-127 -246h83v89 h113v-89h58v-84h-58v-87h-113v87h-207z" glyph-name="threequarters" horiz-adv-x="940" unicode="¾"/>
<glyph d="M25 10q0 75 60 140l24 24q50 50 62 82q8 21 8 44h129q0 -81 -54 -144q-6 -6 -18 -19q-41 -43 -48 -72q-4 -14 -4 -28q2 -63 73 -64q75 0 79 89v2l133 -1q-2 -146 -108 -201q-52 -26 -120 -26q-147 0 -196 90q-20 37 -20 84zM162 463q0 55 46 76q18 8 38 8q54 0 75 -45 q8 -19 8 -39q0 -54 -45 -75q-18 -8 -38 -8q-55 0 -76 45q-8 18 -8 38z" glyph-name="questiondown" horiz-adv-x="472" unicode="¿"/>
<glyph d="M-5 0l302 700h183l295 -700h-190l-50 129h-306l-51 -129h-183zM211 874l156 55l106 -168h-132zM281 264h202l-100 259z" glyph-name="Agrave" horiz-adv-x="770" unicode="À"/>
<glyph d="M-5 0l302 700h183l295 -700h-190l-50 129h-306l-51 -129h-183zM281 264h202l-100 259zM299 761l106 168l156 -55l-130 -113h-132z" glyph-name="Aacute" horiz-adv-x="770" unicode="Á"/>
<glyph d="M-5 0l302 700h183l295 -700h-190l-50 129h-306l-51 -129h-183zM203 771l113 151h138l113 -151h-124l-58 85l-58 -85h-124zM281 264h202l-100 259z" glyph-name="Acircumflex" horiz-adv-x="770" unicode="Â"/>
<glyph d="M-5 0l302 700h183l295 -700h-190l-50 129h-306l-51 -129h-183zM207 782q1 155 105 156q35 0 80 -31q24 -16 35 -16q30 2 31 42h105q-1 -154 -104 -155q-36 0 -81 31q-24 16 -35 16q-29 -2 -30 -43h-106zM281 264h202l-100 259z" glyph-name="Atilde" horiz-adv-x="770" unicode="Ã"/>
<glyph d="M-5 0l302 700h183l295 -700h-190l-50 129h-306l-51 -129h-183zM211 852q0 51 43 71q17 7 35 7q51 0 71 -43q7 -16 7 -35q0 -50 -43 -70q-17 -7 -35 -7q-51 0 -71 42q-7 17 -7 35zM281 264h202l-100 259zM404 852q0 51 43 71q17 7 35 7q51 0 71 -43q7 -16 7 -35 q0 -50 -43 -70q-17 -7 -35 -7q-51 0 -71 42q-7 17 -7 35z" glyph-name="Adieresis" horiz-adv-x="770" unicode="Ä"/>
<glyph d="M-5 0l295 685q-30 35 -30 83q0 66 54 104q34 23 74 23q67 0 106 -54q23 -33 23 -73q-1 -49 -31 -83l289 -685h-190l-50 129h-306l-51 -129h-183zM281 264h202l-100 259zM334 768q0 -34 31 -49q11 -5 23 -5q35 0 50 31q5 11 5 23q0 35 -32 49q-11 5 -23 5q-34 0 -49 -31 q-5 -11 -5 -23z" glyph-name="Aring" horiz-adv-x="770" unicode="Å"/>
<glyph d="M-5 0l398 700h105v1h548v-141h-371v-139h335v-139h-335v-142h382v-140h-559v148h-240l-78 -148h-185zM326 276h172v288h-20z" glyph-name="AE" horiz-adv-x="1102" unicode="Æ"/>
<glyph d="M24 352q0 151 106 252q108 102 268 102q128 0 235 -78q26 -19 47 -40l-103 -122q-60 73 -145 88q-16 3 -31 3q-95 0 -152 -74q-43 -55 -43 -129q0 -102 72 -162q53 -44 123 -44q81 0 156 63q11 10 20 19l104 -110q-90 -92 -216 -120l-24 -4l-24 -47q57 -15 67 -65 q1 -8 1 -16q0 -65 -62 -91q-29 -12 -63 -12q-50 1 -95 31l32 71q22 -19 49 -20q33 0 41 27q1 6 1 10q0 28 -32 35q-7 1 -14 1q-13 0 -36 -4l38 79q-150 17 -240 128q-80 98 -80 229z" glyph-name="Ccedilla" horiz-adv-x="692" unicode="Ç"/>
<glyph d="M70 0v700h548v-140h-370v-139h334v-140h-334v-141h381v-140h-559zM172 874l156 55l106 -168h-132z" glyph-name="Egrave" horiz-adv-x="674" unicode="È"/>
<glyph d="M70 0v700h548v-140h-370v-139h334v-140h-334v-141h381v-140h-559zM260 761l106 168l156 -55l-130 -113h-132z" glyph-name="Eacute" horiz-adv-x="674" unicode="É"/>
<glyph d="M70 0v700h548v-140h-370v-139h334v-140h-334v-141h381v-140h-559zM164 771l113 151h138l113 -151h-124l-58 85l-58 -85h-124z" glyph-name="Ecircumflex" horiz-adv-x="674" unicode="Ê"/>
<glyph d="M70 0v700h548v-140h-370v-139h334v-140h-334v-141h381v-140h-559zM172 852q0 51 43 71q17 7 35 7q51 0 71 -43q7 -16 7 -35q0 -50 -43 -70q-17 -7 -35 -7q-51 0 -71 42q-7 17 -7 35zM365 852q0 51 43 71q17 7 35 7q51 0 71 -43q7 -16 7 -35q0 -50 -43 -70q-17 -7 -35 -7 q-51 0 -71 42q-7 17 -7 35z" glyph-name="Edieresis" horiz-adv-x="674" unicode="Ë"/>
<glyph d="M-15 874l156 55l106 -168h-132zM70 0v700h178v-700h-178z" glyph-name="Igrave" horiz-adv-x="318" unicode="Ì"/>
<glyph d="M70 0v700h178v-700h-178zM72 761l106 168l156 -55l-130 -113h-132z" glyph-name="Iacute" horiz-adv-x="318" unicode="Í"/>
<glyph d="M-23 771l113 151h138l113 -151h-124l-58 85l-58 -85h-124zM70 0v700h178v-700h-178z" glyph-name="Icircumflex" horiz-adv-x="318" unicode="Î"/>
<glyph d="M-15 852q0 51 43 71q17 7 35 7q51 0 71 -43q7 -16 7 -35q0 -50 -43 -70q-17 -7 -35 -7q-51 0 -71 42q-7 17 -7 35zM70 0v700h178v-700h-178zM178 852q0 51 43 71q17 7 35 7q51 0 71 -43q7 -16 7 -35q0 -50 -43 -70q-17 -7 -35 -7q-51 0 -71 42q-7 17 -7 35z" glyph-name="Idieresis" horiz-adv-x="318" unicode="Ï"/>
<glyph d="M0 304v94h102v302h301q177 0 281 -109q91 -96 91 -241q0 -163 -114 -261q-105 -89 -265 -89h-294v304h-102zM279 142h128q98 0 151 78q36 55 36 129q0 112 -77 171q-51 38 -118 38h-120v-160h159v-94h-159v-162z" glyph-name="Eth" horiz-adv-x="799" unicode="Ð"/>
<glyph d="M70 0v700h157l323 -432v432h166v-700h-157l-322 431v-431h-167zM215 782q1 155 105 156q35 0 80 -31q24 -16 35 -16q30 2 31 42h105q-1 -154 -104 -155q-36 0 -81 31q-24 16 -35 16q-29 -2 -30 -43h-106z" glyph-name="Ntilde" horiz-adv-x="786" unicode="Ñ"/>
<glyph d="M24 351q0 153 108 254q109 101 270 101q165 0 274 -104q105 -102 105 -251q0 -152 -107 -254q-109 -105 -272 -105t-271 104q-107 103 -107 255zM206 350q0 -99 72 -162q56 -47 126 -47q91 0 149 73q45 59 45 136q0 101 -72 162q-53 45 -122 45q-91 0 -150 -71 q-48 -58 -48 -136zM221 874l156 55l106 -168h-132z" glyph-name="Ograve" horiz-adv-x="805" unicode="Ò"/>
<glyph d="M24 351q0 153 108 254q109 101 270 101q165 0 274 -104q105 -102 105 -251q0 -152 -107 -254q-109 -105 -272 -105t-271 104q-107 103 -107 255zM206 350q0 -99 72 -162q56 -47 126 -47q91 0 149 73q45 59 45 136q0 101 -72 162q-53 45 -122 45q-91 0 -150 -71 q-48 -58 -48 -136zM308 761l106 168l156 -55l-130 -113h-132z" glyph-name="Oacute" horiz-adv-x="805" unicode="Ó"/>
<glyph d="M24 351q0 153 108 254q109 101 270 101q165 0 274 -104q105 -102 105 -251q0 -152 -107 -254q-109 -105 -272 -105t-271 104q-107 103 -107 255zM206 350q0 -99 72 -162q56 -47 126 -47q91 0 149 73q45 59 45 136q0 101 -72 162q-53 45 -122 45q-91 0 -150 -71 q-48 -58 -48 -136zM213 771l113 151h138l113 -151h-124l-58 85l-58 -85h-124z" glyph-name="Ocircumflex" horiz-adv-x="805" unicode="Ô"/>
<glyph d="M24 351q0 153 108 254q109 101 270 101q165 0 274 -104q105 -102 105 -251q0 -152 -107 -254q-109 -105 -272 -105t-271 104q-107 103 -107 255zM206 350q0 -99 72 -162q56 -47 126 -47q91 0 149 73q45 59 45 136q0 101 -72 162q-53 45 -122 45q-91 0 -150 -71 q-48 -58 -48 -136zM217 782q1 155 105 156q35 0 80 -31q24 -16 35 -16q30 2 31 42h105q-1 -154 -104 -155q-36 0 -81 31q-24 16 -35 16q-29 -2 -30 -43h-106z" glyph-name="Otilde" horiz-adv-x="805" unicode="Õ"/>
<glyph d="M24 351q0 153 108 254q109 101 270 101q165 0 274 -104q105 -102 105 -251q0 -152 -107 -254q-109 -105 -272 -105t-271 104q-107 103 -107 255zM206 350q0 -99 72 -162q56 -47 126 -47q91 0 149 73q45 59 45 136q0 101 -72 162q-53 45 -122 45q-91 0 -150 -71 q-48 -58 -48 -136zM221 852q0 51 43 71q17 7 35 7q51 0 71 -43q7 -16 7 -35q0 -50 -43 -70q-17 -7 -35 -7q-51 0 -71 42q-7 17 -7 35zM414 852q0 51 43 71q17 7 35 7q51 0 71 -43q7 -16 7 -35q0 -50 -43 -70q-17 -7 -35 -7q-51 0 -71 42q-7 17 -7 35z" glyph-name="Odieresis" horiz-adv-x="805" unicode="Ö"/>
<glyph d="M59 208l119 119l-119 118l77 77l119 -118l118 118l77 -77l-118 -118l118 -119l-77 -77l-118 119l-119 -119z" glyph-name="multiply" horiz-adv-x="510" unicode="×"/>
<glyph d="M24 351q0 153 108 254q109 101 270 101q32 0 57 -4l37 107h100l-45 -129q132 -50 193 -170q37 -74 37 -159q0 -152 -107 -254q-109 -105 -272 -105q-47 0 -89 9l-40 -114h-100l51 145q-124 60 -174 184q-26 64 -26 135zM206 350q0 -97 71 -160l2 -2l129 369h-4 q-91 0 -150 -71q-48 -58 -48 -136zM364 145q26 -4 40 -4q91 0 149 73q45 59 45 136q0 103 -73 164q-13 10 -26 18z" glyph-name="Oslash" horiz-adv-x="805" unicode="Ø"/>
<glyph d="M58 294v406h178v-406q0 -95 70 -134q34 -19 76 -19q87 0 123 71q18 36 18 82v406h177v-406q0 -162 -114 -244q-83 -58 -205 -58q-174 0 -261 109q-62 79 -62 193zM205 874l156 55l106 -168h-132z" glyph-name="Ugrave" horiz-adv-x="758" unicode="Ù"/>
<glyph d="M58 294v406h178v-406q0 -95 70 -134q34 -19 76 -19q87 0 123 71q18 36 18 82v406h177v-406q0 -162 -114 -244q-83 -58 -205 -58q-174 0 -261 109q-62 79 -62 193zM293 761l106 168l156 -55l-130 -113h-132z" glyph-name="Uacute" horiz-adv-x="758" unicode="Ú"/>
<glyph d="M58 294v406h178v-406q0 -95 70 -134q34 -19 76 -19q87 0 123 71q18 36 18 82v406h177v-406q0 -162 -114 -244q-83 -58 -205 -58q-174 0 -261 109q-62 79 -62 193zM198 771l113 151h138l113 -151h-124l-58 85l-58 -85h-124z" glyph-name="Ucircumflex" horiz-adv-x="758" unicode="Û"/>
<glyph d="M58 294v406h178v-406q0 -95 70 -134q34 -19 76 -19q87 0 123 71q18 36 18 82v406h177v-406q0 -162 -114 -244q-83 -58 -205 -58q-174 0 -261 109q-62 79 -62 193zM206 852q0 51 43 71q17 7 35 7q51 0 71 -43q7 -16 7 -35q0 -50 -43 -70q-17 -7 -35 -7q-51 0 -71 42 q-7 17 -7 35zM399 852q0 51 43 71q17 7 35 7q51 0 71 -43q7 -16 7 -35q0 -50 -43 -70q-17 -7 -35 -7q-51 0 -71 42q-7 17 -7 35z" glyph-name="Udieresis" horiz-adv-x="758" unicode="Ü"/>
<glyph d="M-5 700h178l169 -305l165 305h178l-254 -474v-226h-177v221zM253 761l106 168l156 -55l-130 -113h-132z" glyph-name="Yacute" horiz-adv-x="680" unicode="Ý"/>
<glyph d="M70 0v700h178v-92h122q181 0 256 -105q40 -57 40 -136q0 -147 -117 -214q-74 -41 -179 -41h-122v-112h-178zM248 248h115q100 0 118 82q3 15 3 32q0 89 -84 106q-17 4 -37 4h-115v-224z" glyph-name="Thorn" horiz-adv-x="689" unicode="Þ"/>
<glyph d="M58 0v492q0 143 103 212q69 46 168 46q147 0 216 -82q42 -50 42 -118q0 -86 -62 -143q-17 -14 -34 -24q93 -25 125 -103q13 -31 13 -66q0 -112 -99 -171q-73 -43 -179 -43h-49v123h41q95 0 115 63q4 14 4 29q0 75 -94 88q-18 2 -37 2h-18v122q93 0 105 76q2 11 2 22 q0 80 -66 93q-12 2 -24 2q-80 0 -97 -79q-3 -18 -3 -37v-504h-172z" glyph-name="germandbls" horiz-adv-x="662" unicode="ß"/>
<glyph d="M27 161q0 115 113 150q42 12 94 13h142v8q0 73 -81 84q-12 1 -24 1q-73 -1 -161 -45l-49 114q132 61 250 61q157 0 211 -99q23 -42 24 -96v-352h-169v62q-54 -70 -165 -70q-112 0 -160 77q-25 40 -25 92zM125 713l156 55l106 -168h-132zM189 173q0 -49 50 -61 q13 -3 26 -3q65 0 97 45q10 14 14 29v48h-109q-77 -2 -78 -58z" glyph-name="agrave" unicode="à"/>
<glyph d="M27 161q0 115 113 150q42 12 94 13h142v8q0 73 -81 84q-12 1 -24 1q-73 -1 -161 -45l-49 114q132 61 250 61q157 0 211 -99q23 -42 24 -96v-352h-169v62q-54 -70 -165 -70q-112 0 -160 77q-25 40 -25 92zM189 173q0 -49 50 -61q13 -3 26 -3q65 0 97 45q10 14 14 29v48 h-109q-77 -2 -78 -58zM213 600l106 168l156 -55l-130 -113h-132z" glyph-name="aacute" unicode="á"/>
<glyph d="M27 161q0 115 113 150q42 12 94 13h142v8q0 73 -81 84q-12 1 -24 1q-73 -1 -161 -45l-49 114q132 61 250 61q157 0 211 -99q23 -42 24 -96v-352h-169v62q-54 -70 -165 -70q-112 0 -160 77q-25 40 -25 92zM117 610l113 151h138l113 -151h-124l-58 85l-58 -85h-124z M189 173q0 -49 50 -61q13 -3 26 -3q65 0 97 45q10 14 14 29v48h-109q-77 -2 -78 -58z" glyph-name="acircumflex" unicode="â"/>
<glyph d="M27 161q0 115 113 150q42 12 94 13h142v8q0 73 -81 84q-12 1 -24 1q-73 -1 -161 -45l-49 114q132 61 250 61q157 0 211 -99q23 -42 24 -96v-352h-169v62q-54 -70 -165 -70q-112 0 -160 77q-25 40 -25 92zM121 621q1 155 105 156q35 0 80 -31q24 -16 35 -16q30 2 31 42 h105q-1 -154 -104 -155q-36 0 -81 31q-24 16 -35 16q-29 -2 -30 -43h-106zM189 173q0 -49 50 -61q13 -3 26 -3q65 0 97 45q10 14 14 29v48h-109q-77 -2 -78 -58z" glyph-name="atilde" unicode="ã"/>
<glyph d="M27 161q0 115 113 150q42 12 94 13h142v8q0 73 -81 84q-12 1 -24 1q-73 -1 -161 -45l-49 114q132 61 250 61q157 0 211 -99q23 -42 24 -96v-352h-169v62q-54 -70 -165 -70q-112 0 -160 77q-25 40 -25 92zM125 691q0 51 43 71q17 7 35 7q51 0 71 -43q7 -16 7 -35 q0 -50 -43 -70q-17 -7 -35 -7q-51 0 -71 42q-7 17 -7 35zM189 173q0 -49 50 -61q13 -3 26 -3q65 0 97 45q10 14 14 29v48h-109q-77 -2 -78 -58zM318 691q0 51 43 71q17 7 35 7q51 0 71 -43q7 -16 7 -35q0 -50 -43 -70q-17 -7 -35 -7q-51 0 -71 42q-7 17 -7 35z" glyph-name="adieresis" unicode="ä"/>
<glyph d="M27 161q0 115 113 150q42 12 94 13h142v8q0 73 -81 84q-12 1 -24 1q-73 -1 -161 -45l-49 114q132 61 250 61q157 0 211 -99q23 -42 24 -96v-352h-169v62q-54 -70 -165 -70q-112 0 -160 77q-25 40 -25 92zM178 694q0 62 51 98q32 22 70 22q64 0 100 -52q21 -31 21 -68 q0 -62 -51 -98q-32 -22 -70 -22q-64 0 -100 52q-21 31 -21 68zM189 173q0 -49 50 -61q13 -3 26 -3q65 0 97 45q10 14 14 29v48h-109q-77 -2 -78 -58zM246 694q0 -34 31 -47q11 -5 22 -5q34 0 48 31q5 10 5 21q0 32 -30 47q-12 5 -23 5q-33 0 -48 -30q-5 -11 -5 -22z" glyph-name="aring" unicode="å"/>
<glyph d="M27 159q0 115 119 147q40 11 89 11h144v15q0 68 -72 82q-16 3 -34 3q-78 -1 -172 -45l-40 116q136 59 251 59q118 -1 182 -59q67 57 169 57q152 0 228 -108q56 -83 51 -205h-388q17 -82 87 -103q20 -6 41 -6q75 1 130 55l91 -89q-88 -95 -236 -95q-154 1 -223 113 q-66 -114 -221 -115q-122 0 -172 79q-24 38 -24 88zM189 173q0 -50 47 -65q14 -4 30 -4q76 1 113 69v62h-109q-73 0 -80 -52q-1 -5 -1 -10zM415 162l5 -4v3zM552 315h217q0 71 -52 101q-24 13 -53 13q-68 0 -99 -69q-9 -21 -13 -45z" glyph-name="ae" horiz-adv-x="966" unicode="æ"/>
<glyph d="M24 268q0 142 99 219q74 58 181 58q146 0 223 -96q9 -13 17 -25l-124 -75q-41 55 -109 56q-67 0 -98 -63q-15 -32 -15 -73q0 -88 58 -122q25 -15 55 -15q76 1 110 61l126 -74q-59 -102 -190 -121l-25 -49q57 -15 67 -65q1 -8 1 -16q0 -65 -62 -91q-29 -12 -63 -12 q-50 1 -95 31l32 71q22 -19 49 -20q33 0 41 27q1 6 1 10q0 28 -32 35q-7 1 -14 1q-13 0 -36 -4l39 81q-134 16 -197 120q-39 65 -39 151z" glyph-name="ccedilla" horiz-adv-x="562" unicode="ç"/>
<glyph d="M24 268q0 143 100 220q74 57 181 57q179 0 243 -137q35 -77 29 -185h-379q22 -84 100 -98q13 -2 27 -2q74 1 129 55l91 -89q-88 -95 -235 -95q-155 0 -233 103q-53 70 -53 171zM127 713l156 55l106 -168h-132zM195 316h216q0 72 -55 98q-23 11 -49 11q-70 0 -100 -69 q-8 -19 -12 -40z" glyph-name="egrave" horiz-adv-x="602" unicode="è"/>
<glyph d="M24 268q0 143 100 220q74 57 181 57q179 0 243 -137q35 -77 29 -185h-379q22 -84 100 -98q13 -2 27 -2q74 1 129 55l91 -89q-88 -95 -235 -95q-155 0 -233 103q-53 70 -53 171zM195 316h216q0 72 -55 98q-23 11 -49 11q-70 0 -100 -69q-8 -19 -12 -40zM214 600l106 168 l156 -55l-130 -113h-132z" glyph-name="eacute" horiz-adv-x="602" unicode="é"/>
<glyph d="M24 268q0 143 100 220q74 57 181 57q179 0 243 -137q35 -77 29 -185h-379q22 -84 100 -98q13 -2 27 -2q74 1 129 55l91 -89q-88 -95 -235 -95q-155 0 -233 103q-53 70 -53 171zM119 609l113 151h138l113 -151h-124l-58 85l-58 -85h-124zM195 316h216q0 72 -55 98 q-23 11 -49 11q-70 0 -100 -69q-8 -19 -12 -40z" glyph-name="ecircumflex" horiz-adv-x="602" unicode="ê"/>
<glyph d="M24 268q0 143 100 220q74 57 181 57q179 0 243 -137q35 -77 29 -185h-379q22 -84 100 -98q13 -2 27 -2q74 1 129 55l91 -89q-88 -95 -235 -95q-155 0 -233 103q-53 70 -53 171zM127 691q0 51 43 71q17 7 35 7q51 0 71 -43q7 -16 7 -35q0 -50 -43 -70q-17 -7 -35 -7 q-51 0 -71 42q-7 17 -7 35zM195 316h216q0 72 -55 98q-23 11 -49 11q-70 0 -100 -69q-8 -19 -12 -40zM320 691q0 51 43 71q17 7 35 7q51 0 71 -43q7 -16 7 -35q0 -50 -43 -70q-17 -7 -35 -7q-51 0 -71 42q-7 17 -7 35z" glyph-name="edieresis" horiz-adv-x="602" unicode="ë"/>
<glyph d="M-18 713l156 55l106 -168h-132zM69 0v539h172v-539h-172z" glyph-name="igrave" horiz-adv-x="311" unicode="ì"/>
<glyph d="M69 0v539h172v-539h-172zM69 600l106 168l156 -55l-130 -113h-132z" glyph-name="iacute" horiz-adv-x="311" unicode="í"/>
<glyph d="M-26 610l113 151h138l113 -151h-124l-58 85l-58 -85h-124zM69 0v539h172v-539h-172z" glyph-name="icircumflex" horiz-adv-x="311" unicode="î"/>
<glyph d="M-18 691q0 51 43 71q17 7 35 7q51 0 71 -43q7 -16 7 -35q0 -50 -43 -70q-17 -7 -35 -7q-51 0 -71 42q-7 17 -7 35zM69 0v539h172v-539h-172zM175 691q0 51 43 71q17 7 35 7q51 0 71 -43q7 -16 7 -35q0 -50 -43 -70q-17 -7 -35 -7q-51 0 -71 42q-7 17 -7 35z" glyph-name="idieresis" horiz-adv-x="311" unicode="ï"/>
<glyph d="M22 226q0 124 91 182q57 37 136 37q93 0 148 -48q8 -6 13 -12q-28 81 -107 157l-163 -54l-26 80l113 38q-61 43 -125 73l116 70q92 -37 162 -92l143 48l27 -80l-98 -33q128 -140 128 -308q0 -154 -106 -234q-78 -58 -191 -58q-145 0 -216 92q-45 59 -45 142zM187 234 q0 -66 56 -90q22 -9 47 -9q75 0 98 56q8 19 8 41q0 66 -57 89q-22 9 -49 9q-73 0 -96 -56q-7 -19 -7 -40z" glyph-name="eth" horiz-adv-x="604" unicode="ð"/>
<glyph d="M69 0v539h173v-88q58 94 180 96q113 0 166 -86q31 -51 31 -121v-340h-172v292q0 73 -56 95q-18 7 -39 7q-71 0 -99 -66q-8 -20 -11 -43v-285h-173zM175 621q1 155 105 156q35 0 80 -31q24 -16 35 -16q30 2 31 42h105q-1 -154 -104 -155q-36 0 -81 31q-24 16 -35 16 q-29 -2 -30 -43h-106z" glyph-name="ntilde" horiz-adv-x="673" unicode="ñ"/>
<glyph d="M24 270q0 143 104 219q78 56 191 56q153 0 235 -98q59 -73 59 -177q0 -141 -102 -218q-78 -58 -192 -58q-153 0 -235 98q-60 73 -60 178zM145 713l156 55l106 -168h-132zM198 268q0 -87 60 -124q27 -16 61 -16q72 0 104 65q16 33 16 75q0 86 -58 123q-28 17 -62 17 q-72 0 -104 -64q-17 -34 -17 -76z" glyph-name="ograve" horiz-adv-x="637" unicode="ò"/>
<glyph d="M24 270q0 143 104 219q78 56 191 56q153 0 235 -98q59 -73 59 -177q0 -141 -102 -218q-78 -58 -192 -58q-153 0 -235 98q-60 73 -60 178zM198 268q0 -87 60 -124q27 -16 61 -16q72 0 104 65q16 33 16 75q0 86 -58 123q-28 17 -62 17q-72 0 -104 -64q-17 -34 -17 -76z M232 600l106 168l156 -55l-130 -113h-132z" glyph-name="oacute" horiz-adv-x="637" unicode="ó"/>
<glyph d="M24 270q0 143 104 219q78 56 191 56q153 0 235 -98q59 -73 59 -177q0 -141 -102 -218q-78 -58 -192 -58q-153 0 -235 98q-60 73 -60 178zM137 609l113 151h138l113 -151h-124l-58 85l-58 -85h-124zM198 268q0 -87 60 -124q27 -16 61 -16q72 0 104 65q16 33 16 75 q0 86 -58 123q-28 17 -62 17q-72 0 -104 -64q-17 -34 -17 -76z" glyph-name="ocircumflex" horiz-adv-x="637" unicode="ô"/>
<glyph d="M24 270q0 143 104 219q78 56 191 56q153 0 235 -98q59 -73 59 -177q0 -141 -102 -218q-78 -58 -192 -58q-153 0 -235 98q-60 73 -60 178zM140 621q1 155 105 156q35 0 80 -31q24 -16 35 -16q30 2 31 42h105q-1 -154 -104 -155q-36 0 -81 31q-24 16 -35 16q-29 -2 -30 -43 h-106zM198 268q0 -87 60 -124q27 -16 61 -16q72 0 104 65q16 33 16 75q0 86 -58 123q-28 17 -62 17q-72 0 -104 -64q-17 -34 -17 -76z" glyph-name="otilde" horiz-adv-x="637" unicode="õ"/>
<glyph d="M24 270q0 143 104 219q78 56 191 56q153 0 235 -98q59 -73 59 -177q0 -141 -102 -218q-78 -58 -192 -58q-153 0 -235 98q-60 73 -60 178zM145 691q0 51 43 71q17 7 35 7q51 0 71 -43q7 -16 7 -35q0 -50 -43 -70q-17 -7 -35 -7q-51 0 -71 42q-7 17 -7 35zM198 268 q0 -87 60 -124q27 -16 61 -16q72 0 104 65q16 33 16 75q0 86 -58 123q-28 17 -62 17q-72 0 -104 -64q-17 -34 -17 -76zM338 691q0 51 43 71q17 7 35 7q51 0 71 -43q7 -16 7 -35q0 -50 -43 -70q-17 -7 -35 -7q-51 0 -71 42q-7 17 -7 35z" glyph-name="odieresis" horiz-adv-x="637" unicode="ö"/>
<glyph d="M33 272v109h444v-109h-444zM169 149q0 49 42 70q17 8 36 8q51 0 71 -43q7 -17 7 -35q0 -51 -43 -71q-16 -7 -35 -7q-49 0 -70 42q-8 17 -8 36zM169 506q0 51 43 71q17 7 35 7q52 0 71 -44q7 -16 7 -34q0 -50 -43 -70q-16 -7 -35 -7q-51 0 -71 42q-7 17 -7 35z" glyph-name="divide" horiz-adv-x="510" unicode="÷"/>
<glyph d="M24 270q0 143 104 219q78 56 191 56q28 0 53 -3l42 129h71l-47 -145q117 -41 158 -153q17 -48 17 -103q0 -141 -102 -218q-78 -58 -192 -58q-28 0 -53 3l-45 -139h-71l50 155q-116 41 -158 151q-18 50 -18 106zM187 268q1 -88 54 -129l92 282l-14 1q-78 0 -113 -68 q-19 -38 -19 -86zM304 115l15 -1q78 0 113 69q18 37 18 85q-1 85 -54 129z" glyph-name="oslash" horiz-adv-x="637" unicode="ø"/>
<glyph d="M53 199v340h173v-291q0 -75 55 -97q17 -6 35 -6q68 1 94 66q11 28 11 62v266h173v-539h-173v89q-57 -95 -175 -96q-112 0 -163 86q-30 51 -30 120zM153 713l156 55l106 -168h-132z" glyph-name="ugrave" horiz-adv-x="663" unicode="ù"/>
<glyph d="M53 199v340h173v-291q0 -75 55 -97q17 -6 35 -6q68 1 94 66q11 28 11 62v266h173v-539h-173v89q-57 -95 -175 -96q-112 0 -163 86q-30 51 -30 120zM240 600l106 168l156 -55l-130 -113h-132z" glyph-name="uacute" horiz-adv-x="663" unicode="ú"/>
<glyph d="M53 199v340h173v-291q0 -75 55 -97q17 -6 35 -6q68 1 94 66q11 28 11 62v266h173v-539h-173v89q-57 -95 -175 -96q-112 0 -163 86q-30 51 -30 120zM145 610l113 151h138l113 -151h-124l-58 85l-58 -85h-124z" glyph-name="ucircumflex" horiz-adv-x="663" unicode="û"/>
<glyph d="M53 199v340h173v-291q0 -75 55 -97q17 -6 35 -6q68 1 94 66q11 28 11 62v266h173v-539h-173v89q-57 -95 -175 -96q-112 0 -163 86q-30 51 -30 120zM153 691q0 51 43 71q17 7 35 7q51 0 71 -43q7 -16 7 -35q0 -50 -43 -70q-17 -7 -35 -7q-51 0 -71 42q-7 17 -7 35z M346 691q0 51 43 71q17 7 35 7q51 0 71 -43q7 -16 7 -35q0 -50 -43 -70q-17 -7 -35 -7q-51 0 -71 42q-7 17 -7 35z" glyph-name="udieresis" horiz-adv-x="663" unicode="ü"/>
<glyph d="M-12 539h178l132 -358l117 358h172l-233 -595q-61 -145 -208 -146q-86 1 -157 55l72 118q37 -29 71 -29q46 1 67 43l13 27zM204 600l106 168l156 -55l-130 -113h-132z" glyph-name="yacute" horiz-adv-x="580" unicode="ý"/>
<glyph d="M74 -194v936h173v-274q61 76 161 77q131 0 201 -99q52 -73 52 -179q0 -148 -94 -223q-64 -50 -155 -50q-106 1 -165 78v-266h-173zM247 272q0 -87 58 -124q28 -17 61 -17q71 0 104 64q17 34 17 77q0 84 -57 122q-29 18 -64 18q-69 0 -102 -63q-17 -34 -17 -77z" glyph-name="thorn" horiz-adv-x="685" unicode="þ"/>
</font>
</defs>
</svg>
