<?xml version="1.0" encoding="UTF-8"?>
<!DOCTYPE svg  PUBLIC '-//W3C//DTD SVG 1.1//EN'  'http://www.w3.org/Graphics/SVG/1.1/DTD/svg11.dtd'>
<svg version="1.1" xmlns="http://www.w3.org/2000/svg">
<defs>
<font id="TruenoLt" horiz-adv-x="718">
<font-face font-family="Trueno" font-weight="300" ascent="800" bbox="-88 -215 1019 923" cap-height="700" descent="-200" panose-1="0 0 4 0 0 0 0 0 0 0" underline-position="-150" underline-thickness="50" unicode-range="U+0020-00FE" units-per-em="1000" x-height="527"/>
<missing-glyph/>
<glyph glyph-name="space" horiz-adv-x="274" unicode=" "/>
<glyph d="M62 44q0 36 30 49q9 3 18 3q34 0 46 -33q3 -9 3 -19q0 -37 -31 -49q-9 -3 -18 -3q-32 0 -44 31q-4 11 -4 21zM73 519v169h75v-169l-12 -308h-52z" glyph-name="exclam" horiz-adv-x="203" unicode="!"/>
<glyph d="M60 473v227h62v-227h-62zM191 473v227h62v-227h-62z" glyph-name="quotedbl" horiz-adv-x="313" unicode='"'/>
<glyph d="M35 185l5 63h145l25 198h-143l5 63h146l23 191h60l-23 -191h201l24 191h59l-23 -191h142l-4 -63h-146l-25 -198h143l-5 -63h-145l-23 -185h-60l23 185h-201l-23 -185h-60l23 185h-143zM245 248h201l25 198h-202z" glyph-name="numbersign" unicode="#"/>
<glyph d="M32 104l36 72q83 -82 195 -97q8 0 14 -1v248q-112 33 -155 73q-50 47 -50 123q0 98 92 147q49 26 113 32v122h61v-121q112 -7 198 -64l-34 -75q-75 49 -164 58v-228q112 -35 155 -70q60 -50 60 -134q0 -103 -95 -156q-52 -28 -120 -34v-133h-61v132q-128 8 -227 90 q-10 8 -18 16zM160 529q0 -66 79 -102q17 -7 38 -15v208q-98 -9 -114 -70q-3 -10 -3 -21zM338 79q99 11 122 74q5 16 5 32q0 69 -81 105q-20 8 -46 17v-228z" glyph-name="dollar" horiz-adv-x="610" unicode="$"/>
<glyph d="M43 494q0 140 91 188q39 19 87 19q115 0 159 -98q20 -47 20 -109q0 -141 -93 -188q-38 -19 -86 -19q-119 0 -160 103q-18 45 -18 104zM98 494q0 -127 85 -151q18 -5 38 -5q95 0 117 99q6 26 6 57q0 125 -83 151q-19 6 -40 6q-93 0 -117 -97q-6 -27 -6 -60zM164 0l524 700 h77l-523 -700h-78zM542 206q0 141 94 188q37 18 84 18q117 0 160 -100q19 -46 19 -106q0 -141 -93 -188q-38 -19 -86 -19q-119 0 -160 103q-18 45 -18 104zM597 206q0 -129 87 -152q17 -5 36 -5q96 0 118 101q5 26 5 56q0 127 -85 151q-18 5 -38 5q-95 0 -117 -99 q-6 -26 -6 -57z" glyph-name="percent" horiz-adv-x="942" unicode="%"/>
<glyph d="M58 188q0 98 104 167q23 15 55 32q-72 93 -72 165q0 83 70 125q43 26 101 26q97 0 140 -65q22 -34 22 -76q0 -83 -97 -147q-27 -17 -76 -43q54 -63 170 -177q40 56 72 136l53 -41q-36 -83 -79 -140l121 -119l-42 -44l-117 116q-101 -106 -217 -107q-101 0 -162 69 q-46 53 -46 123zM124 194q0 -74 63 -112q37 -22 82 -22q89 1 169 88q-134 134 -187 196q-94 -52 -117 -103q-10 -23 -10 -47zM209 553q1 -57 61 -139q93 48 121 84q23 30 23 64q0 59 -54 79q-20 8 -44 8q-68 0 -96 -50q-11 -22 -11 -46z" glyph-name="ampersand" horiz-adv-x="649" unicode="&amp;"/>
<glyph d="M60 473v227h62v-227h-62z" glyph-name="quotesingle" horiz-adv-x="182" unicode="'"/>
<glyph d="M87 309q0 254 115 427q2 4 4 6h71q-111 -172 -116 -415v-18q0 -240 105 -415q6 -10 11 -18h-71q-114 165 -119 412v21z" glyph-name="parenleft" horiz-adv-x="303" unicode="("/>
<glyph d="M88 -124q108 166 116 403v30q0 245 -109 422q-4 6 -7 11h71q117 -180 119 -433q0 -249 -110 -420q-5 -7 -9 -13h-71z" glyph-name="parenright" horiz-adv-x="318" unicode=")"/>
<glyph d="M27 520l94 54l-94 52l22 43l94 -55l-1 107h44v-107l93 54l22 -42l-95 -52l95 -54l-22 -42l-94 55l1 -108h-44l1 108l-94 -55z" glyph-name="asterisk" horiz-adv-x="328" unicode="*"/>
<glyph d="M37 294v58h182v181h54v-181h181v-58h-181v-181h-54v181h-182z" glyph-name="plus" horiz-adv-x="491" unicode="+"/>
<glyph d="M42 -72l33 73q-21 14 -22 43q0 36 30 47q9 3 17 3q34 0 45 -32q3 -10 3 -19q-1 -20 -15 -43l-47 -72h-44z" glyph-name="comma" horiz-adv-x="197" unicode=","/>
<glyph d="M64 274v58h235v-58h-235z" glyph-name="hyphen" horiz-adv-x="363" unicode="-"/>
<glyph d="M51 44q0 37 31 49q9 3 18 3q32 0 44 -31q4 -11 4 -21q0 -36 -30 -49q-9 -3 -18 -3q-34 0 -46 33q-3 9 -3 19z" glyph-name="period" horiz-adv-x="199" unicode="."/>
<glyph d="M-11 -122l312 942h69l-313 -942h-68z" glyph-name="slash" horiz-adv-x="317" unicode="/"/>
<glyph d="M53 350q0 241 145 319q62 33 144 33q189 0 257 -163q32 -79 32 -189q0 -241 -145 -319q-62 -33 -144 -33q-189 0 -257 163q-32 79 -32 189zM134 350q0 -271 190 -283q9 -1 18 -1q190 0 206 238q2 23 2 46q-1 283 -208 284q-207 -2 -208 -284z" glyph-name="zero" horiz-adv-x="684" unicode="0"/>
<glyph d="M17 624v76h221v-700h-79v624h-142z" glyph-name="one" horiz-adv-x="371" unicode="1"/>
<glyph d="M40 606q111 94 236 97q129 0 184 -78q29 -41 29 -94q-1 -95 -124 -227l-215 -228h379v-76h-481v66l262 285q84 84 95 154q1 8 1 15q0 77 -78 101q-28 8 -62 8q-93 0 -179 -76q-7 -6 -12 -11z" glyph-name="two" horiz-adv-x="581" unicode="2"/>
<glyph d="M7 67l35 67q81 -66 181 -66q112 0 155 73q18 32 18 71q0 104 -112 127q-29 6 -62 6h-86v51l205 227h-303v76h403v-54l-217 -241l39 -3q131 -6 185 -90q26 -42 26 -96q0 -116 -90 -177q-64 -42 -155 -42q-116 0 -212 64q-5 4 -10 7z" glyph-name="three" horiz-adv-x="527" unicode="3"/>
<glyph d="M31 184v66l251 450h79l-244 -439h250v185h75v-185h106v-77h-106v-184h-75v184h-336z" glyph-name="four" horiz-adv-x="577" unicode="4"/>
<glyph d="M33 74l33 68q86 -65 184 -70h11q112 0 152 76q18 34 18 76q0 84 -79 118q-39 17 -89 17q-95 0 -180 -17v358h406v-77h-332v-197q60 10 118 10q133 0 200 -84q41 -53 41 -123q0 -127 -95 -190q-63 -41 -152 -41q-106 0 -208 58q-15 9 -28 18z" glyph-name="five" horiz-adv-x="565" unicode="5"/>
<glyph d="M53 335q0 199 105 298q75 70 183 70q100 0 195 -48q2 -1 3 -2l-32 -64q-74 43 -161 43q-137 0 -189 -126q-31 -77 -25 -186q39 104 158 124q25 4 51 4q132 0 190 -94q32 -53 32 -126q0 -133 -96 -195q-59 -37 -141 -37q-160 0 -230 134q-43 84 -43 205zM151 223 q-1 -66 50 -112q48 -41 120 -41q101 0 145 72q22 38 22 87q0 96 -77 134q-37 17 -84 17q-100 0 -149 -70q-27 -39 -27 -87z" glyph-name="six" horiz-adv-x="604" unicode="6"/>
<glyph d="M39 623v77h486v-67l-291 -633h-85l288 623h-326v-102z" glyph-name="seven" horiz-adv-x="554" unicode="7"/>
<glyph d="M50 194q0 107 100 159q24 13 51 21q-104 41 -116 135q-1 10 -1 20q0 106 98 150q54 24 126 24q146 0 200 -86q25 -39 25 -90q0 -101 -100 -147q-8 -3 -14 -6q112 -33 140 -125q7 -26 7 -53q0 -118 -107 -170q-63 -30 -150 -30q-161 0 -226 90q-33 47 -33 108zM126 203 q0 -95 95 -127q39 -12 88 -12q128 0 168 77q14 28 14 62q0 88 -91 119q-40 14 -92 14q-128 0 -168 -75q-14 -26 -14 -58zM153 522q0 -84 86 -110q31 -9 70 -9q115 0 146 72q9 22 9 47q0 83 -84 109q-32 10 -71 10q-116 0 -147 -72q-9 -22 -9 -47z" glyph-name="eight" horiz-adv-x="617" unicode="8"/>
<glyph d="M49 472q0 133 96 195q59 37 141 37q160 0 230 -134q43 -83 43 -204q0 -200 -106 -300q-74 -69 -182 -69q-100 0 -195 48q-2 1 -3 2l32 64q74 -43 161 -43q137 0 189 126q31 77 25 186q-39 -104 -158 -124q-25 -4 -51 -4q-132 0 -190 94q-32 53 -32 126zM124 471 q0 -96 77 -134q37 -17 84 -17q101 0 151 71q26 39 26 86q0 68 -53 113q-47 40 -118 40q-103 0 -145 -73q-22 -37 -22 -86z" glyph-name="nine" horiz-adv-x="604" unicode="9"/>
<glyph d="M51 44q0 37 31 49q9 3 18 3q32 0 44 -31q4 -11 4 -21q0 -36 -30 -49q-9 -3 -18 -3q-34 0 -46 33q-3 9 -3 19zM51 341q0 37 31 49q9 3 18 3q32 0 44 -31q4 -11 4 -21q0 -36 -30 -49q-9 -3 -18 -3q-34 0 -46 33q-3 9 -3 19z" glyph-name="colon" horiz-adv-x="196" unicode=":"/>
<glyph d="M42 -72l33 73q-21 14 -22 43q0 36 30 47q9 3 17 3q34 0 45 -32q3 -10 3 -19q-1 -20 -15 -43l-47 -72h-44zM51 341q0 37 31 49q9 3 18 3q32 0 44 -31q4 -11 4 -21q0 -36 -30 -49q-9 -3 -18 -3q-34 0 -46 33q-3 9 -3 19z" glyph-name="semicolon" horiz-adv-x="198" unicode=";"/>
<glyph d="M37 289v75l417 186v-66l-363 -158l363 -158v-65z" glyph-name="less" horiz-adv-x="491" unicode="&lt;"/>
<glyph d="M37 190v59h417v-59h-417zM37 397v59h417v-59h-417z" glyph-name="equal" horiz-adv-x="491" unicode="="/>
<glyph d="M37 106v66l363 158l-363 158v65l417 -186v-75z" glyph-name="greater" horiz-adv-x="491" unicode="&gt;"/>
<glyph d="M6 510q5 121 104 162q40 17 91 17q123 0 169 -79q20 -35 20 -82q0 -77 -57 -138l-26 -26q-51 -48 -65 -81q-12 -29 -12 -63h-62q0 81 56 141l24 24q47 46 60 79q9 25 9 53q0 78 -79 97q-21 5 -44 5q-102 0 -121 -84q-3 -13 -4 -27zM149 44q0 36 30 49q9 3 18 3 q34 0 46 -33q3 -9 3 -19q0 -37 -31 -49q-9 -3 -18 -3q-32 0 -44 31q-4 11 -4 21z" glyph-name="question" horiz-adv-x="424" unicode="?"/>
<glyph d="M40 266q0 178 119 303q117 122 296 137q22 2 43 2q190 0 316 -119q124 -118 132 -299v-22q0 -150 -76 -219q-43 -38 -99 -38q-74 0 -99 58q-6 15 -8 33l-1 33q-52 -92 -161 -107q-18 -2 -35 -2q-110 0 -180 78q-60 68 -60 164q0 118 79 189q65 57 154 57q94 0 158 -61 q20 -19 29 -39v92h74v-374q0 -54 42 -64q8 -2 15 -2q55 0 86 73q22 54 22 127q0 167 -110 275q-109 105 -278 105q-166 0 -279 -106q-111 -103 -118 -257v-17q0 -158 110 -261t274 -103q91 0 168 43q11 6 20 12l28 -56q-72 -49 -179 -60q-20 -2 -37 -2q-186 0 -312 116 q-123 113 -132 287q-1 12 -1 24zM307 272q0 -89 65 -139q44 -34 102 -34q92 0 140 72q29 44 29 100q0 88 -67 136q-44 32 -103 32q-89 0 -136 -69q-30 -43 -30 -98z" glyph-name="at" horiz-adv-x="986" unicode="@"/>
<glyph d="M4 0l314 700h83l313 -700h-87l-78 177h-382l-78 -177h-85zM201 254h314l-158 355z" glyph-name="A" unicode="A"/>
<glyph d="M106 0v700h295q151 0 204 -88q22 -38 22 -87q0 -100 -81 -141q-22 -12 -48 -17q112 -17 147 -106q13 -33 13 -71q0 -118 -111 -165q-59 -25 -141 -25h-300zM186 76h211q140 0 172 81q8 21 8 44q0 83 -94 110q-38 11 -86 11h-211v-246zM186 398h211q117 0 143 75 q6 18 6 39q0 83 -89 104q-28 7 -60 7h-211v-225z" glyph-name="B" horiz-adv-x="716" unicode="B"/>
<glyph d="M40 351q0 143 101.5 244t249.5 107h14q134 0 239 -87q9 -8 17 -15l-48 -61q-79 80 -189 87q-10 1 -18 1q-124 0 -208 -86q-77 -80 -77 -190q0 -118 87 -199q83 -77 198 -77q114 0 202 80q3 2 5 4l49 -55q-102 -96 -233 -107q-14 -1 -27 -1q-149 0 -253 100 q-104 99 -109 242v13z" glyph-name="C" horiz-adv-x="700" unicode="C"/>
<glyph d="M106 0v700h283q154 0 258 -101q102 -101 102 -249q0 -149 -104 -249q-105 -101 -259 -101h-280zM186 76h204q125 0 206 87q72 77 72 186q0 124 -90 204q-80 70 -191 70h-201v-547z" glyph-name="D" horiz-adv-x="789" unicode="D"/>
<glyph d="M106 0v700h475v-77h-395v-230h353v-77h-353v-240h408v-76h-488z" glyph-name="E" horiz-adv-x="651" unicode="E"/>
<glyph d="M106 0v700h445v-77h-365v-246h327v-77h-327v-300h-80z" glyph-name="F" horiz-adv-x="563" unicode="F"/>
<glyph d="M40 350q0 144 102 245q103 102 254 107h13q136 0 242 -83q9 -7 16 -13l-46 -60q-93 79 -212 81q-125 0 -209 -86q-79 -81 -79 -191q0 -119 88 -201q85 -77 201 -77q98 1 184 59v211h71v-254q-99 -79 -226 -90q-18 -2 -34 -2q-149 0 -255 99q-104 98 -110 240v15z" glyph-name="G" horiz-adv-x="753" unicode="G"/>
<glyph d="M106 0v700h80v-316h422v316h80v-700h-80v308h-422v-308h-80z" glyph-name="H" horiz-adv-x="794" unicode="H"/>
<glyph d="M106 0v700h80v-700h-80z" glyph-name="I" horiz-adv-x="292" unicode="I"/>
<glyph d="M0 96l40 64q68 -80 153 -81q103 0 118 100q2 16 2 33v488h81v-490q0 -143 -101 -193q-43 -21 -99 -21q-116 1 -194 100z" glyph-name="J" horiz-adv-x="483" unicode="J"/>
<glyph d="M106 0v700h80v-403l376 403h95l-277 -304l298 -396h-98l-258 332l-136 -149v-183h-80z" glyph-name="K" horiz-adv-x="699" unicode="K"/>
<glyph d="M106 0v700h80v-624h307v-76h-387z" glyph-name="L" horiz-adv-x="517" unicode="L"/>
<glyph d="M106 0v700h99l256 -504l255 504h98v-700h-74l-1 577l-255 -503h-48l-254 503v-577h-76z" glyph-name="M" horiz-adv-x="921" unicode="M"/>
<glyph d="M106 0v700h83l420 -563v563h79v-700h-82l-420 562v-562h-80z" glyph-name="N" horiz-adv-x="795" unicode="N"/>
<glyph d="M40 350q0 145 103 246.5t253 105.5h11q150 0 256 -99q105 -98 110 -240v-13q0 -143 -101 -246q-102 -102 -250 -108h-15q-151 0 -258 101q-104 98 -109 240v13zM121 350q0 -118 88 -199q84 -78 198 -78q121 0 205 85q79 81 79 192q0 119 -88 200q-83 76 -196 76 q-121 0 -206 -84q-80 -81 -80 -192z" glyph-name="O" horiz-adv-x="813" unicode="O"/>
<glyph d="M106 0v700h263q181 0 245 -115q28 -52 28 -120q0 -157 -125 -215q-63 -29 -148 -29h-183v-221h-80zM186 298h180q160 0 192 111q7 25 7 54q0 126 -130 153q-32 7 -69 7h-180v-325z" glyph-name="P" horiz-adv-x="669" unicode="P"/>
<glyph d="M40 350q0 145 103 246.5t253 105.5h11q150 0 256 -99q105 -98 110 -240v-13q0 -143 -100 -244q-72 -73 -171 -98q74 -77 142 -78q62 1 135 63l35 -60q-84 -77 -179 -77q-119 1 -220 140h-8q-151 0 -258 101q-104 98 -109 240v13zM121 350q0 -118 88 -199q84 -78 198 -78 q121 0 205 85q79 81 79 192q0 119 -88 200q-83 76 -196 76q-121 0 -206 -84q-80 -81 -80 -192z" glyph-name="Q" horiz-adv-x="830" unicode="Q"/>
<glyph d="M106 0v700h266q183 0 247 -115q29 -51 29 -120q0 -162 -135 -219l-22 -8l164 -238h-91l-145 223q-30 -2 -47 -2h-186v-221h-80zM186 298h186q165 0 193 117q6 22 6 48q0 130 -136 155q-29 5 -63 5h-186v-325z" glyph-name="R" horiz-adv-x="723" unicode="R"/>
<glyph d="M32 104l36 72q85 -82 197 -97q19 -2 36 -2q116 0 152 62q12 21 12 46q0 68 -81 105q-19 9 -124 41q-112 35 -152 83q-36 44 -36 108q0 99 93 148q62 33 149 33q119 0 215 -60q4 -3 7 -5l-34 -75q-89 59 -193 59q-110 0 -140 -57q-9 -17 -9 -36q0 -67 81 -103 q19 -8 123 -41q113 -36 153 -86q36 -45 36 -110q0 -104 -96 -156q-65 -36 -157 -36q-129 0 -235 80q-18 13 -33 27z" glyph-name="S" horiz-adv-x="611" unicode="S"/>
<glyph d="M11 623v77h537v-77h-229v-623h-80v623h-228z" glyph-name="T" horiz-adv-x="558" unicode="T"/>
<glyph d="M90 288v412h80v-412q0 -138 101 -190q49 -25 114 -25q138 0 189 102q24 49 24 113v412h80v-412q0 -171 -118 -247q-72 -45 -175 -45q-173 0 -249 118q-46 72 -46 174z" glyph-name="U" horiz-adv-x="768" unicode="U"/>
<glyph d="M6 700h86l241 -607l242 607h84l-286 -700h-83z" glyph-name="V" horiz-adv-x="665" unicode="V"/>
<glyph d="M6 700h86l192 -607l190 606l80 1l192 -607l190 607h83l-235 -700h-82l-189 590l-191 -590h-82z" glyph-name="W" horiz-adv-x="1017" unicode="W"/>
<glyph d="M22 0l257 360l-239 340h94l193 -270l195 270h94l-238 -336l258 -364h-96l-213 293l-211 -293h-94z" glyph-name="X" horiz-adv-x="665" unicode="X"/>
<glyph d="M4 700h83l227 -365l224 365h82l-266 -460v-240h-79v237z" glyph-name="Y" horiz-adv-x="625" unicode="Y"/>
<glyph d="M43 0v64l464 559h-451v77h556v-64l-464 -560h469l-1 -76h-573z" glyph-name="Z" horiz-adv-x="660" unicode="Z"/>
<glyph d="M106 -124v866h197v-67h-126v-732h126v-67h-197z" glyph-name="bracketleft" horiz-adv-x="334" unicode="["/>
<glyph d="M65 820h68l313 -942h-68z" glyph-name="backslash" horiz-adv-x="447" unicode="\"/>
<glyph d="M110 -57h126v732h-126v67h196v-866h-196v67z" glyph-name="bracketright" horiz-adv-x="412" unicode="]"/>
<glyph d="M34 130l185 396h75l186 -396h-65l-158 345l-158 -345h-65z" glyph-name="asciicircum" horiz-adv-x="515" unicode="^"/>
<glyph d="M0 -152h554v-52h-554v52z" glyph-name="underscore" horiz-adv-x="554" unicode="_"/>
<glyph d="M71 713l80 37l120 -136h-75z" glyph-name="grave" horiz-adv-x="350" unicode="`"/>
<glyph d="M50 157q0 95 92 132q45 18 105 19h173v31q0 98 -94 118q-22 5 -47 5q-81 -1 -167 -60l-33 57q90 59 169 68q22 3 46 3q142 0 186 -99q16 -37 17 -83l1 -348h-76v81q-64 -85 -193 -85q-102 0 -151 70q-28 40 -28 91zM123 160q0 -63 63 -86q26 -10 58 -10q103 0 154 69 q16 23 23 49v63h-164q-133 -1 -134 -85z" glyph-name="a" horiz-adv-x="577" unicode="a"/>
<glyph d="M100 0v742h78v-329q54 102 173 115q15 2 30 2q126 0 198 -93q55 -72 55 -175q0 -135 -89 -209q-67 -56 -162 -56q-131 0 -195 99q-6 9 -10 17v-113h-78zM178 264q0 -105 75 -160q49 -36 114 -36q99 0 152 76q36 51 36 120q0 102 -72 158q-50 38 -116 38q-100 0 -153 -76 q-36 -51 -36 -120z" glyph-name="b" horiz-adv-x="676" unicode="b"/>
<glyph d="M42 263q0 132 91 208q71 58 170 58q127 1 203 -78l-43 -55q-65 61 -157 61q-100 0 -152 -76q-35 -50 -35 -118q0 -105 74 -159q49 -36 113 -36q106 1 163 68l45 -48q-76 -91 -211 -91q-130 0 -204 92q-57 72 -57 174z" glyph-name="c" horiz-adv-x="561" unicode="c"/>
<glyph d="M42 264q0 136 90 211q68 56 163 56q130 0 194 -98q7 -10 12 -20v329h78v-742h-78v113q-55 -105 -179 -116q-14 -1 -26 -1q-127 0 -198 93q-56 72 -56 175zM120 262q0 -103 73 -158q51 -38 118 -38q100 0 154 76q36 51 36 120q0 103 -73 160q-50 38 -117 38 q-100 0 -154 -76q-37 -53 -37 -122z" glyph-name="d" horiz-adv-x="679" unicode="d"/>
<glyph d="M42 263q0 133 91 208q70 58 170 58q159 1 218 -127q32 -71 28 -169h-430q14 -103 98 -146q42 -22 93 -22q100 1 163 66l43 -46q-79 -88 -212 -88q-132 0 -206 93q-56 72 -56 173zM119 297h360q-5 103 -85 144q-40 21 -91 21q-102 0 -153 -78q-25 -38 -31 -87z" glyph-name="e" horiz-adv-x="588" unicode="e"/>
<glyph d="M43 447v64h68v58q0 104 77 152q42 25 92 25q66 -2 113 -37l-32 -63q-39 27 -80 27q-60 0 -83 -48q-10 -21 -10 -46v-68h151v-64h-151v-447h-77v447h-68z" glyph-name="f" horiz-adv-x="324" unicode="f"/>
<glyph d="M42 278q0 128 86 200q64 51 152 52q134 0 194 -107q1 -2 2 -3v107h78v-472q0 -138 -101 -206q-68 -45 -164 -45q-117 2 -216 76l36 60q80 -65 177 -67q114 0 164 80q26 43 26 100v80q-55 -103 -179 -110h-15q-122 0 -190 91q-50 68 -50 164zM115 275q1 -100 72 -152 q47 -34 109 -34q95 0 146 73q34 49 34 113q0 101 -72 154q-47 33 -108 33q-97 0 -148 -75q-32 -48 -33 -112z" glyph-name="g" horiz-adv-x="636" unicode="g"/>
<glyph d="M100 0v742h78v-333q54 119 205 121q128 0 177 -97q23 -47 23 -108v-325h-78v304q0 103 -81 136q-31 12 -68 12q-107 -1 -154 -87q-24 -46 -24 -106v-259h-78z" glyph-name="h" horiz-adv-x="662" unicode="h"/>
<glyph d="M82 678q0 37 31 50q10 4 20 4q35 0 47 -33q4 -11 4 -21q0 -37 -31 -50q-10 -4 -20 -4q-35 0 -47 33q-4 11 -4 21zM95 0v527h77v-527h-77z" glyph-name="i" horiz-adv-x="267" unicode="i"/>
<glyph d="M-88 -161l28 64q37 -27 76 -27q66 0 75 73q1 10 1 21v557h78v-547q0 -119 -80 -161q-32 -16 -71 -16q-60 1 -107 36zM78 678q0 37 32 51q10 4 21 4q36 0 49 -33q4 -11 4 -22q0 -38 -33 -51q-10 -4 -20 -4q-35 0 -49 33q-4 11 -4 22z" glyph-name="j" horiz-adv-x="267" unicode="j"/>
<glyph d="M100 0v742h78v-485l271 270h92l-197 -204l218 -323h-93l-180 266l-111 -115v-151h-78z" glyph-name="k" horiz-adv-x="573" unicode="k"/>
<glyph d="M100 0v742h78v-742h-78z" glyph-name="l" horiz-adv-x="278" unicode="l"/>
<glyph d="M95 0v527h77v-119q53 120 201 122q122 0 172 -92q11 -22 17 -46q50 136 208 138q125 0 173 -96q23 -47 23 -109v-325h-78v304q0 105 -81 137q-29 12 -65 12q-108 -3 -151 -92q-21 -45 -21 -102v-259h-79v304q0 107 -83 139q-29 10 -63 10q-105 -3 -150 -90 q-23 -45 -23 -104v-259h-77z" glyph-name="m" horiz-adv-x="1044" unicode="m"/>
<glyph d="M95 0v527h78v-116q55 117 204 119q128 0 177 -97q23 -47 23 -108v-325h-78v304q0 103 -81 136q-31 12 -68 12q-109 -1 -155 -89q-18 -36 -22 -80v-283h-78z" glyph-name="n" horiz-adv-x="656" unicode="n"/>
<glyph d="M42 264q0 132 92 207q73 58 175 58q132 0 208 -91q59 -72 59 -174q0 -133 -92 -208q-73 -59 -175 -59q-132 0 -208 91q-59 73 -59 176zM120 263q0 -106 75 -161q49 -35 114 -35q99 0 153 75q36 51 36 121q0 105 -75 159q-49 36 -114 36q-100 0 -153 -75q-36 -52 -36 -120 z" glyph-name="o" horiz-adv-x="618" unicode="o"/>
<glyph d="M100 -194v721h78v-114q54 102 173 115q15 2 30 2q126 0 198 -93q55 -72 55 -175q0 -135 -89 -209q-67 -56 -162 -56q-131 0 -195 99q-6 9 -10 17v-307h-78zM178 264q0 -105 75 -160q49 -36 114 -36q99 0 152 76q36 51 36 120q0 102 -72 158q-50 38 -116 38 q-100 0 -153 -76q-36 -51 -36 -120z" glyph-name="p" horiz-adv-x="676" unicode="p"/>
<glyph d="M42 264q0 136 90 211q68 56 163 56q130 0 194 -98q7 -10 12 -20v114h78v-721h-78v307q-55 -105 -179 -116q-14 -1 -26 -1q-127 0 -198 93q-56 72 -56 175zM120 262q0 -103 73 -158q51 -38 118 -38q100 0 154 76q36 51 36 120q0 103 -73 160q-50 38 -117 38 q-100 0 -154 -76q-37 -53 -37 -122z" glyph-name="q" horiz-adv-x="679" unicode="q"/>
<glyph d="M95 0v527h78v-117q55 118 189 120v-79q-114 2 -164 -85q-21 -38 -25 -86v-280h-78z" glyph-name="r" horiz-adv-x="372" unicode="r"/>
<glyph d="M25 71l30 59q62 -58 155 -66q10 -1 20 -1q89 0 109 51q4 12 4 24q1 49 -64 75q-18 8 -60 21q-92 28 -125 56q-42 37 -42 97q0 97 97 130q39 13 86 13q98 -1 168 -48l-30 -62q-68 43 -143 43q-90 0 -102 -54q-2 -8 -2 -16q0 -44 64 -69q17 -7 57 -19q94 -28 129 -57 q44 -39 44 -101q0 -96 -96 -133q-44 -17 -97 -17q-112 0 -189 62q-7 6 -13 12z" glyph-name="s" horiz-adv-x="453" unicode="s"/>
<glyph d="M38 447v63h76v139h77v-139l167 1v-64h-167v-287q6 -85 70 -88q41 0 84 27l22 -63q-58 -38 -119 -40q-96 0 -124 83q-10 30 -10 67v301h-76z" glyph-name="t" horiz-adv-x="390" unicode="t"/>
<glyph d="M77 202v325h78v-304q0 -103 79 -136q30 -12 67 -12q105 2 150 89q23 45 23 104v259h78v-527h-78v119q-53 -120 -200 -122q-124 0 -173 95q-24 47 -24 110z" glyph-name="u" horiz-adv-x="647" unicode="u"/>
<glyph d="M4 527h83l168 -446l167 446h79l-207 -527h-81z" glyph-name="v" horiz-adv-x="498" unicode="v"/>
<glyph d="M4 527h82l156 -446l153 446h82l155 -446l154 446h81l-195 -527h-81l-155 428l-154 -428h-81z" glyph-name="w" horiz-adv-x="864" unicode="w"/>
<glyph d="M21 0l192 271l-179 256h90l140 -200l142 200h86l-176 -256l189 -271h-91l-150 215l-155 -215h-88z" glyph-name="x" horiz-adv-x="529" unicode="x"/>
<glyph d="M-6 -159l33 65q36 -25 74 -25q64 2 96 74l22 49l-218 523h82l175 -435l167 435h80l-242 -602q-51 -122 -158 -123q-63 1 -111 39z" glyph-name="y" horiz-adv-x="502" unicode="y"/>
<glyph d="M52 0v59l330 399l-321 1v68l415 -1v-59l-330 -399l338 -1v-68z" glyph-name="z" horiz-adv-x="526" unicode="z"/>
<glyph d="M43 274v69h26q47 4 48 59v222q0 88 69 110q30 9 74 9h28v-67q-85 0 -97 -50q-3 -11 -3 -25v-194q0 -71 -41 -92q-8 -4 -17 -7q49 -14 56 -68q2 -14 2 -30v-195q0 -58 56 -70q19 -4 44 -4v-67h-28q-109 0 -134 62q-9 24 -9 57v221q-3 58 -48 60h-26z" glyph-name="braceleft" horiz-adv-x="311" unicode="{"/>
<glyph d="M94 -121v936h62v-936h-62z" glyph-name="bar" horiz-adv-x="250" unicode="|"/>
<glyph d="M90 -59q84 0 97 48q3 12 3 26v195q0 72 42 92q8 4 16 6q-48 15 -56 67q-2 15 -2 32v194q0 59 -57 71q-19 4 -43 4v67h28q109 0 134 -62q9 -24 9 -57v-222q2 -58 48 -59h26v-69h-26q-45 -8 -48 -60v-221q0 -88 -69 -110q-30 -9 -74 -9h-28v67z" glyph-name="braceright" horiz-adv-x="356" unicode="}"/>
<glyph d="M73 264q1 118 86 119q33 0 94 -35q46 -27 67 -27q42 2 43 54h56q-1 -118 -86 -119q-36 0 -95 35q-45 26 -66 26q-42 -2 -43 -53h-56z" glyph-name="asciitilde" horiz-adv-x="491" unicode="~"/>
<glyph glyph-name="nbspace" horiz-adv-x="274" unicode=" "/>
<glyph d="M61 482q0 36 30 49q9 3 18 3q34 0 46 -33q3 -9 3 -19q0 -38 -32 -49q-9 -3 -17 -3q-34 0 -45 32q-3 10 -3 20zM72 7l11 308h52l11 -308v-169h-74v169z" glyph-name="exclamdown" horiz-adv-x="202" unicode="¡"/>
<glyph d="M42 263q0 132 91 208q58 47 136 56v146h61v-145q110 -8 176 -77l-43 -55q-57 52 -133 60v-387q89 8 139 67l45 -48q-68 -81 -184 -90v-132h-61v133q-122 14 -184 110q-43 67 -43 154zM119 263q0 -105 75 -160q33 -24 75 -32v383q-90 -16 -130 -97q-20 -43 -20 -94z" glyph-name="cent" horiz-adv-x="561" unicode="¢"/>
<glyph d="M43 0v70h87v239h-87v62h87v118q0 155 111 199q38 15 86 15q112 0 186 -89q2 -3 3 -4l-34 -64q-65 80 -147 81q-111 0 -123 -111q-2 -14 -2 -28v-117h182v-62h-182v-239h294v-70h-461z" glyph-name="sterling" horiz-adv-x="541" unicode="£"/>
<glyph d="M42 49l103 104q-59 74 -59 165q1 91 58 165l-102 103l45 49l106 -105q75 55 165 55q93 -1 167 -55l105 105l45 -49l-101 -102q59 -74 59 -166q-1 -93 -61 -165l103 -104l-45 -49l-107 106q-75 -53 -165 -53q-92 1 -163 54l-108 -107zM149 318q0 -88 72 -146 q60 -48 137 -48q99 0 162 69q50 55 50 125q0 90 -73 149q-61 48 -139 48q-97 0 -160 -70q-49 -56 -49 -127z" glyph-name="currency" horiz-adv-x="717" unicode="¤"/>
<glyph d="M5 700h82l227 -365l224 365h82l-225 -389h160v-40h-183l-17 -29v-67h200v-40h-200v-135h-80v135h-197v40h197v63l-20 33h-177v40h154z" glyph-name="yen" horiz-adv-x="619" unicode="¥"/>
<glyph d="M94 -121v349h62v-349h-62zM94 466v349h62v-349h-62z" glyph-name="brokenbar" horiz-adv-x="250" unicode="¦"/>
<glyph d="M24 -8l27 52q81 -68 178 -68q80 0 113 43q13 18 13 39q0 49 -70 78q-19 8 -64 22q-96 30 -130 59q-43 37 -43 93q0 78 85 112q22 9 47 13q-96 34 -113 89q-5 16 -5 34q0 77 77 114q46 22 107 22q91 -1 169 -48l-26 -53q-70 42 -143 42q-85 0 -109 -46q-7 -13 -7 -28 q0 -49 69 -78q20 -8 65 -22q97 -30 131 -59q43 -37 43 -94q0 -63 -59 -105q-26 -17 -54 -24q84 -33 97 -92q3 -13 3 -28q0 -77 -76 -117q-50 -26 -117 -26q-124 1 -208 76zM117 317q0 -49 58 -77q38 -18 82 -18q78 0 103 47q9 16 9 33q0 55 -65 78q-31 10 -69 10 q-89 0 -112 -47q-6 -13 -6 -26z" glyph-name="section" horiz-adv-x="472" unicode="§"/>
<glyph d="M44 684q0 35 30 48q9 3 18 3q32 0 44 -30q4 -11 4 -21q0 -35 -30 -48q-9 -3 -18 -3q-32 0 -44 30q-4 11 -4 21zM211 684q0 35 29 48q9 3 18 3q34 0 45 -32q3 -9 3 -19q0 -37 -31 -48q-9 -3 -17 -3q-33 0 -44 32q-3 9 -3 19z" glyph-name="dieresis" horiz-adv-x="373" unicode="¨"/>
<glyph d="M40 348q0 137 94 236q106 101 245 105q140 0 239 -98q96 -104 99 -241q0 -137 -95 -236q-96 -101 -234 -105h-11q-140 0 -238 98q-96 104 -99 241zM83 348q0 -124 88 -210q85 -83 206 -83q129 0 216 91q82 87 82 204q0 124 -89 210q-86 83 -207 83q-128 0 -215 -92 q-81 -85 -81 -203zM201 349q0 84 67 136q51 39 116 39q75 -1 130 -52l-27 -32q-46 42 -103 42q-71 0 -113 -55q-26 -35 -26 -77q0 -68 56 -109q38 -26 83 -26q57 1 103 41l27 -29q-57 -55 -132 -55q-88 0 -142 66q-39 49 -39 111z" glyph-name="copyright" horiz-adv-x="757" unicode="©"/>
<glyph d="M40 549q0 67 79 82q20 4 43 4h104v21q-9 64 -84 67q-52 -1 -108 -33l-16 42q70 39 136 39q97 0 121 -68q7 -19 7 -41l1 -204h-57v56q-40 -58 -120 -58q-72 0 -97 52q-9 19 -9 41zM94 553q0 -40 43 -53q13 -3 27 -3q74 1 102 60v46h-93q-75 -5 -79 -50z" glyph-name="ordfeminine" horiz-adv-x="380" unicode="ª"/>
<glyph d="M37 255l113 168h68l-107 -168l107 -166h-68zM191 255l113 168h68l-107 -168l107 -166h-68z" glyph-name="guillemotleft" horiz-adv-x="427" unicode="«"/>
<glyph d="M37 330v59h431v-239h-59v180h-372z" glyph-name="logicalnot" horiz-adv-x="551" unicode="¬"/>
<glyph d="M64 274v58h235v-58h-235z" glyph-name="softhyphen" horiz-adv-x="364" unicode="­"/>
<glyph d="M40 348q0 137 94 236q106 101 245 105q140 0 239 -98q96 -104 99 -241q0 -137 -95 -236q-96 -101 -234 -105h-11q-140 0 -238 98q-96 104 -99 241zM83 348q0 -124 88 -210q85 -83 206 -83q129 0 216 91q82 87 82 204q0 124 -89 210q-86 83 -207 83q-128 0 -215 -92 q-81 -85 -81 -203zM251 182v351h134q117 0 137 -86q3 -16 3 -32q-1 -88 -79 -113l84 -120h-50l-74 112q-8 -1 -21 -1h-92v-111h-42zM293 331h92q82 0 96 61q3 11 3 23q0 66 -71 78q-14 2 -28 2h-92v-164z" glyph-name="registered" horiz-adv-x="757" unicode="®"/>
<glyph d="M55 646v62h241v-62h-241z" glyph-name="macron" horiz-adv-x="350" unicode="¯"/>
<glyph d="M79 692q0 58 49 92q30 21 65 21q59 0 95 -49q21 -30 21 -64q0 -57 -50 -91q-30 -21 -66 -21q-59 0 -93 48q-21 30 -21 64zM117 692q0 -41 39 -62q18 -10 37 -10q45 0 68 37q10 17 10 35q0 41 -39 63q-19 10 -39 10q-43 0 -66 -37q-10 -18 -10 -36z" glyph-name="degree" horiz-adv-x="328" unicode="°"/>
<glyph d="M37 32v59h417v-59h-417zM37 354v58h182v178h54v-178h181v-58h-181v-177h-54v177h-182z" glyph-name="plusminus" horiz-adv-x="491" unicode="±"/>
<glyph d="M34 643q71 59 150 59q89 0 120 -56q12 -22 12 -47q-1 -58 -77 -133l-125 -127h224v-50h-298v44l159 165q54 55 55 94q0 46 -54 56q-12 2 -25 2q-61 -1 -116 -52z" glyph-name="twosuperior" horiz-adv-x="380" unicode="²"/>
<glyph d="M16 329l25 48q47 -42 109 -42q74 0 93 51q5 14 5 28q0 60 -73 70q-13 2 -26 2h-55v36l124 129h-184v47h252v-37l-127 -134l23 -1q86 -6 114 -65q10 -22 10 -46q0 -78 -70 -111q-36 -17 -82 -17q-81 1 -138 42z" glyph-name="threesuperior" horiz-adv-x="348" unicode="³"/>
<glyph d="M75 614l120 136l79 -38l-124 -98h-75z" glyph-name="acute" horiz-adv-x="350" unicode="´"/>
<glyph d="M99 202v325h79v-325q9 -94 91 -119q25 -8 54 -8q105 2 150 89q23 45 23 104v259h78v-527h-78v119q-53 -120 -200 -122q-71 1 -118 32v-223h-78v371q-1 9 -1 25z" glyph-name="mu" horiz-adv-x="669" unicode="µ"/>
<glyph d="M2 556q0 101 78 151q54 35 136 35h270v-852h-61v798h-151v-798h-61v488q-13 -1 -34 -1q-124 0 -164 105q-13 36 -13 74z" glyph-name="paragraph" horiz-adv-x="592" unicode="¶"/>
<glyph d="M51 282q0 36 30 47q9 3 17 3q34 0 44 -32q3 -9 3 -18q0 -37 -30 -49q-8 -3 -17 -3q-33 0 -44 33q-3 9 -3 19z" glyph-name="periodcentered" horiz-adv-x="196" unicode="·"/>
<glyph d="M86 -191l17 43q25 -20 59 -20q39 0 50 31q3 8 3 16q0 30 -31 39q-9 3 -19 3q-19 0 -33 -3l38 91h49l-26 -59q54 -7 68 -52q3 -12 3 -24q1 -56 -50 -79q-22 -10 -47 -10q-47 1 -81 24z" glyph-name="cedilla" horiz-adv-x="350" unicode="¸"/>
<glyph d="M21 648v52h144v-411h-59v359h-85z" glyph-name="onesuperior" horiz-adv-x="254" unicode="¹"/>
<glyph d="M36 614q0 90 71 133q41 24 94 24q93 0 139 -67q27 -39 27 -90q0 -88 -70 -132q-42 -26 -96 -26q-95 0 -140 69q-25 39 -25 89zM93 613q0 -68 55 -96q24 -12 53 -12q67 0 95 54q12 24 12 54q0 68 -54 96q-24 12 -53 12q-66 0 -95 -53q-13 -25 -13 -55z" glyph-name="ordmasculine" horiz-adv-x="402" unicode="º"/>
<glyph d="M76 89l107 168l-107 166h68l113 -166l-113 -168h-68zM230 89l107 168l-107 166h68l113 -166l-113 -168h-68z" glyph-name="guillemotright" horiz-adv-x="434" unicode="»"/>
<glyph d="M21 648v52h144v-411h-59v359h-85zM39 0l524 700h77l-523 -700h-78zM425 104v46l149 261h58l-147 -260h144v110h56v-110h63v-47h-63v-104h-56v104h-204z" glyph-name="onequarter" horiz-adv-x="776" unicode="¼"/>
<glyph d="M21 648v52h144v-411h-59v359h-85zM39 0l524 700h77l-523 -700h-78zM453 355q71 58 150 58q87 0 119 -54q13 -22 13 -48q-1 -59 -77 -134l-125 -127h224v-50h-298v44l159 165q54 55 55 94q0 46 -54 56q-12 2 -25 2q-60 -1 -116 -51z" glyph-name="onehalf" horiz-adv-x="799" unicode="½"/>
<glyph d="M16 329l25 48q47 -42 109 -42q74 0 93 51q5 14 5 28q0 60 -73 70q-13 2 -26 2h-55v36l124 129h-184v47h252v-37l-127 -134l23 -1q86 -6 114 -65q10 -22 10 -46q0 -78 -70 -111q-36 -17 -82 -17q-81 1 -138 42zM103 0l524 700h77l-523 -700h-78zM490 104v46l149 261h58 l-147 -260h144v110h56v-110h63v-47h-63v-104h-56v104h-204z" glyph-name="threequarters" horiz-adv-x="841" unicode="¾"/>
<glyph d="M35 -3q0 78 58 139q8 9 25 26q51 48 65 81q12 29 12 63h61q0 -81 -56 -141l-24 -24q-47 -46 -60 -79q-9 -25 -9 -53q0 -78 79 -97q21 -5 44 -5q105 0 122 88q2 11 3 22l63 -1q-5 -119 -100 -162q-42 -18 -94 -18q-124 0 -169 79q-20 36 -20 82zM179 482q0 36 30 49 q9 3 18 3q34 0 46 -33q3 -9 3 -19q0 -38 -32 -49q-9 -3 -17 -3q-34 0 -45 32q-3 10 -3 20z" glyph-name="questiondown" horiz-adv-x="424" unicode="¿"/>
<glyph d="M4 0l314 700h83l313 -700h-87l-78 177h-382l-78 -177h-85zM201 254h314l-158 355zM209 886l80 37l120 -136h-75z" glyph-name="Agrave" unicode="À"/>
<glyph d="M4 0l314 700h83l313 -700h-87l-78 177h-382l-78 -177h-85zM201 254h314l-158 355zM306 787l120 136l79 -38l-124 -98h-75z" glyph-name="Aacute" unicode="Á"/>
<glyph d="M4 0l314 700h83l313 -700h-87l-78 177h-382l-78 -177h-85zM201 254h314l-158 355zM219 789l102 130h76l102 -130h-68l-72 90l-72 -90h-68z" glyph-name="Acircumflex" unicode="Â"/>
<glyph d="M4 0l314 700h83l313 -700h-87l-78 177h-382l-78 -177h-85zM201 254h314l-158 355zM210 805q1 112 83 113q28 0 71 -34q33 -26 50 -26q42 2 43 52h52q-1 -112 -83 -113q-32 0 -73 34q-31 26 -48 26q-42 -2 -43 -52h-52z" glyph-name="Atilde" unicode="Ã"/>
<glyph d="M4 0l314 700h83l313 -700h-87l-78 177h-382l-78 -177h-85zM201 254h314l-158 355zM228 857q0 35 30 48q9 3 18 3q32 0 44 -30q4 -11 4 -21q0 -36 -30 -49q-9 -3 -18 -3q-32 0 -44 31q-4 11 -4 21zM394 857q0 35 30 48q9 3 18 3q32 0 44 -30q4 -11 4 -21q0 -36 -30 -49 q-9 -3 -18 -3q-32 0 -44 31q-4 11 -4 21z" glyph-name="Adieresis" unicode="Ä"/>
<glyph d="M4 0l303 675q-52 25 -63 82q-2 12 -2 22q0 59 50 95q31 22 68 22q61 0 97 -51q22 -31 22 -66q0 -63 -54 -98q-6 -4 -12 -7l301 -674h-87l-78 177h-382l-78 -177h-85zM201 254h314l-158 355zM282 779q0 -42 39 -64q19 -10 39 -10q46 0 69 38q10 18 10 36q0 42 -40 63 q-19 10 -39 10q-45 0 -68 -38q-10 -17 -10 -35z" glyph-name="Aring" unicode="Å"/>
<glyph d="M4 0l413 700h539v-77h-395v-231h354v-76h-354v-239h408v-77h-488v190h-281l-111 -190h-85zM240 258h241v371h-25z" glyph-name="AE" horiz-adv-x="1027" unicode="Æ"/>
<glyph d="M40 351q0 143 101.5 244t249.5 107h14q134 0 239 -87q9 -8 17 -15l-48 -61q-79 80 -189 87q-10 1 -18 1q-124 0 -208 -86q-77 -80 -77 -190q0 -118 87 -199q83 -77 198 -77q114 0 202 80q3 2 5 4l49 -55q-103 -97 -232 -107h-3l-21 -47q54 -7 68 -52q3 -12 3 -24 q1 -56 -50 -79q-22 -10 -47 -10q-47 1 -81 24l17 43q25 -20 59 -20q39 0 50 31q3 8 3 16q0 30 -31 39q-9 3 -19 3q-19 0 -33 -3l33 79q-146 9 -244 113q-94 102 -94 241z" glyph-name="Ccedilla" horiz-adv-x="700" unicode="Ç"/>
<glyph d="M106 0v700h475v-77h-395v-230h353v-77h-353v-240h408v-76h-488zM197 886l80 37l120 -136h-75z" glyph-name="Egrave" horiz-adv-x="651" unicode="È"/>
<glyph d="M106 0v700h475v-77h-395v-230h353v-77h-353v-240h408v-76h-488zM294 787l120 136l79 -38l-124 -98h-75z" glyph-name="Eacute" horiz-adv-x="651" unicode="É"/>
<glyph d="M106 0v700h475v-77h-395v-230h353v-77h-353v-240h408v-76h-488zM207 789l102 130h76l102 -130h-68l-72 90l-72 -90h-68z" glyph-name="Ecircumflex" horiz-adv-x="651" unicode="Ê"/>
<glyph d="M106 0v700h475v-77h-395v-230h353v-77h-353v-240h408v-76h-488zM216 857q0 35 30 48q9 3 18 3q32 0 44 -30q4 -11 4 -21q0 -36 -30 -49q-9 -3 -18 -3q-32 0 -44 31q-4 11 -4 21zM382 857q0 35 30 48q9 3 18 3q32 0 44 -30q4 -11 4 -21q0 -36 -30 -49q-9 -3 -18 -3 q-32 0 -44 31q-4 11 -4 21z" glyph-name="Edieresis" horiz-adv-x="651" unicode="Ë"/>
<glyph d="M-4 886l80 37l120 -136h-75zM106 0v700h80v-700h-80z" glyph-name="Igrave" horiz-adv-x="292" unicode="Ì"/>
<glyph d="M92 787l120 136l79 -38l-124 -98h-75zM106 0v700h80v-700h-80z" glyph-name="Iacute" horiz-adv-x="292" unicode="Í"/>
<glyph d="M6 789l102 130h76l102 -130h-68l-72 90l-72 -90h-68zM106 0v700h80v-700h-80z" glyph-name="Icircumflex" horiz-adv-x="292" unicode="Î"/>
<glyph d="M15 857q0 35 30 48q9 3 18 3q32 0 44 -30q4 -11 4 -21q0 -36 -30 -49q-9 -3 -18 -3q-32 0 -44 31q-4 11 -4 21zM106 0v700h80v-700h-80zM181 857q0 35 30 48q9 3 18 3q32 0 44 -30q4 -11 4 -21q0 -36 -30 -49q-9 -3 -18 -3q-32 0 -44 31q-4 11 -4 21z" glyph-name="Idieresis" horiz-adv-x="292" unicode="Ï"/>
<glyph d="M0 326v52h118v322h283q154 0 258 -101q102 -101 102 -249q0 -149 -103 -249q-105 -101 -260 -101h-280v326h-118zM198 76h204q125 0 206 87q72 77 72 186q0 124 -90 204q-80 70 -191 70h-201v-245h223v-52h-223v-250z" glyph-name="Eth" horiz-adv-x="801" unicode="Ð"/>
<glyph d="M106 0v700h83l420 -563v563h79v-700h-82l-420 562v-562h-80zM248 805q1 112 83 113q28 0 71 -34q33 -26 50 -26q42 2 43 52h52q-1 -112 -83 -113q-32 0 -73 34q-31 26 -48 26q-42 -2 -43 -52h-52z" glyph-name="Ntilde" horiz-adv-x="795" unicode="Ñ"/>
<glyph d="M40 350q0 145 103 246.5t253 105.5h11q150 0 256 -99q105 -98 110 -240v-13q0 -143 -101 -246q-102 -102 -250 -108h-15q-151 0 -258 101q-104 98 -109 240v13zM121 350q0 -118 88 -199q84 -78 198 -78q121 0 205 85q79 81 79 192q0 119 -88 200q-83 76 -196 76 q-121 0 -206 -84q-80 -81 -80 -192zM254 886l80 37l120 -136h-75z" glyph-name="Ograve" horiz-adv-x="813" unicode="Ò"/>
<glyph d="M40 350q0 145 103 246.5t253 105.5h11q150 0 256 -99q105 -98 110 -240v-13q0 -143 -101 -246q-102 -102 -250 -108h-15q-151 0 -258 101q-104 98 -109 240v13zM121 350q0 -118 88 -199q84 -78 198 -78q121 0 205 85q79 81 79 192q0 119 -88 200q-83 76 -196 76 q-121 0 -206 -84q-80 -81 -80 -192zM350 787l120 136l79 -38l-124 -98h-75z" glyph-name="Oacute" horiz-adv-x="813" unicode="Ó"/>
<glyph d="M40 350q0 145 103 246.5t253 105.5h11q150 0 256 -99q105 -98 110 -240v-13q0 -143 -101 -246q-102 -102 -250 -108h-15q-151 0 -258 101q-104 98 -109 240v13zM121 350q0 -118 88 -199q84 -78 198 -78q121 0 205 85q79 81 79 192q0 119 -88 200q-83 76 -196 76 q-121 0 -206 -84q-80 -81 -80 -192zM264 789l102 130h76l102 -130h-68l-72 90l-72 -90h-68z" glyph-name="Ocircumflex" horiz-adv-x="813" unicode="Ô"/>
<glyph d="M40 350q0 145 103 246.5t253 105.5h11q150 0 256 -99q105 -98 110 -240v-13q0 -143 -101 -246q-102 -102 -250 -108h-15q-151 0 -258 101q-104 98 -109 240v13zM121 350q0 -118 88 -199q84 -78 198 -78q121 0 205 85q79 81 79 192q0 119 -88 200q-83 76 -196 76 q-121 0 -206 -84q-80 -81 -80 -192zM254 805q1 112 83 113q28 0 71 -34q33 -26 50 -26q42 2 43 52h52q-1 -112 -83 -113q-32 0 -73 34q-31 26 -48 26q-42 -2 -43 -52h-52z" glyph-name="Otilde" horiz-adv-x="813" unicode="Õ"/>
<glyph d="M40 350q0 145 103 246.5t253 105.5h11q150 0 256 -99q105 -98 110 -240v-13q0 -143 -101 -246q-102 -102 -250 -108h-15q-151 0 -258 101q-104 98 -109 240v13zM121 350q0 -118 88 -199q84 -78 198 -78q121 0 205 85q79 81 79 192q0 119 -88 200q-83 76 -196 76 q-121 0 -206 -84q-80 -81 -80 -192zM273 857q0 35 30 48q9 3 18 3q32 0 44 -30q4 -11 4 -21q0 -36 -30 -49q-9 -3 -18 -3q-32 0 -44 31q-4 11 -4 21zM439 857q0 35 30 48q9 3 18 3q32 0 44 -30q4 -11 4 -21q0 -36 -30 -49q-9 -3 -18 -3q-32 0 -44 31q-4 11 -4 21z" glyph-name="Odieresis" horiz-adv-x="813" unicode="Ö"/>
<glyph d="M80 196l126 127l-126 127l38 42l128 -129l128 129l38 -42l-126 -127l126 -127l-38 -42l-128 129l-128 -129z" glyph-name="multiply" horiz-adv-x="491" unicode="×"/>
<glyph d="M40 350q0 145 103 246.5t253 105.5h11q33 0 76 -7l39 118h51l-43 -131q127 -42 194 -155q49 -82 49 -177q0 -143 -101 -246q-102 -102 -250 -108h-15q-50 0 -101 13l-45 -137h-51l51 153q-124 51 -183 167q-38 75 -38 158zM121 350q0 -117 88 -200q35 -31 76 -51l174 522 q-29 5 -52 5q-121 0 -206 -84q-80 -81 -80 -192zM331 83q35 -10 76 -10q121 0 205 85q79 81 79 192q0 119 -89 201q-43 38 -97 58z" glyph-name="Oslash" horiz-adv-x="813" unicode="Ø"/>
<glyph d="M90 288v412h80v-412q0 -138 101 -190q49 -25 114 -25q138 0 189 102q24 49 24 113v412h80v-412q0 -171 -118 -247q-72 -45 -175 -45q-173 0 -249 118q-46 72 -46 174zM235 886l80 37l120 -136h-75z" glyph-name="Ugrave" horiz-adv-x="768" unicode="Ù"/>
<glyph d="M90 288v412h80v-412q0 -138 101 -190q49 -25 114 -25q138 0 189 102q24 49 24 113v412h80v-412q0 -171 -118 -247q-72 -45 -175 -45q-173 0 -249 118q-46 72 -46 174zM331 787l120 136l79 -38l-124 -98h-75z" glyph-name="Uacute" horiz-adv-x="768" unicode="Ú"/>
<glyph d="M90 288v412h80v-412q0 -138 101 -190q49 -25 114 -25q138 0 189 102q24 49 24 113v412h80v-412q0 -171 -118 -247q-72 -45 -175 -45q-173 0 -249 118q-46 72 -46 174zM244 789l102 130h76l102 -130h-68l-72 90l-72 -90h-68z" glyph-name="Ucircumflex" horiz-adv-x="768" unicode="Û"/>
<glyph d="M90 288v412h80v-412q0 -138 101 -190q49 -25 114 -25q138 0 189 102q24 49 24 113v412h80v-412q0 -171 -118 -247q-72 -45 -175 -45q-173 0 -249 118q-46 72 -46 174zM253 857q0 35 30 48q9 3 18 3q32 0 44 -30q4 -11 4 -21q0 -36 -30 -49q-9 -3 -18 -3q-32 0 -44 31 q-4 11 -4 21zM419 857q0 35 30 48q9 3 18 3q32 0 44 -30q4 -11 4 -21q0 -36 -30 -49q-9 -3 -18 -3q-32 0 -44 31q-4 11 -4 21z" glyph-name="Udieresis" horiz-adv-x="768" unicode="Ü"/>
<glyph d="M4 700h83l227 -365l224 365h82l-266 -460v-240h-79v237zM259 787l120 136l79 -38l-124 -98h-75z" glyph-name="Yacute" horiz-adv-x="625" unicode="Ý"/>
<glyph d="M106 0v700h80v-104h162q239 0 286 -153q11 -35 11 -76q0 -177 -171 -223q-55 -15 -126 -15h-162v-129h-80zM186 199h159q217 2 218 166q-2 160 -218 161h-159v-327z" glyph-name="Thorn" horiz-adv-x="672" unicode="Þ"/>
<glyph d="M90 0v490q0 144 95 213q61 43 147 43q124 0 185 -78q36 -48 36 -112q0 -93 -70 -146q-27 -20 -59 -30q118 -20 154 -106q13 -32 13 -68q0 -107 -90 -164q-67 -42 -163 -42h-53v65h58q104 0 149 64q23 33 23 74q0 84 -87 119q-45 17 -103 17h-10v64q103 0 143 69 q19 33 19 73q0 83 -70 117q-34 16 -76 16q-99 0 -141 -82q-22 -44 -22 -101v-495h-78z" glyph-name="germandbls" horiz-adv-x="649" unicode="ß"/>
<glyph d="M50 157q0 95 92 132q45 18 105 19h173v31q0 98 -94 118q-22 5 -47 5q-81 -1 -167 -60l-33 57q90 59 169 68q22 3 46 3q142 0 186 -99q16 -37 17 -83l1 -348h-76v81q-64 -85 -193 -85q-102 0 -151 70q-28 40 -28 91zM123 160q0 -63 63 -86q26 -10 58 -10q103 0 154 69 q16 23 23 49v63h-164q-133 -1 -134 -85zM135 713l80 37l120 -136h-75z" glyph-name="agrave" horiz-adv-x="577" unicode="à"/>
<glyph d="M50 157q0 95 92 132q45 18 105 19h173v31q0 98 -94 118q-22 5 -47 5q-81 -1 -167 -60l-33 57q90 59 169 68q22 3 46 3q142 0 186 -99q16 -37 17 -83l1 -348h-76v81q-64 -85 -193 -85q-102 0 -151 70q-28 40 -28 91zM123 160q0 -63 63 -86q26 -10 58 -10q103 0 154 69 q16 23 23 49v63h-164q-133 -1 -134 -85zM231 614l120 136l79 -38l-124 -98h-75z" glyph-name="aacute" horiz-adv-x="577" unicode="á"/>
<glyph d="M50 157q0 95 92 132q45 18 105 19h173v31q0 98 -94 118q-22 5 -47 5q-81 -1 -167 -60l-33 57q90 59 169 68q22 3 46 3q142 0 186 -99q16 -37 17 -83l1 -348h-76v81q-64 -85 -193 -85q-102 0 -151 70q-28 40 -28 91zM123 160q0 -63 63 -86q26 -10 58 -10q103 0 154 69 q16 23 23 49v63h-164q-133 -1 -134 -85zM144 616l102 130h76l102 -130h-68l-72 90l-72 -90h-68z" glyph-name="acircumflex" horiz-adv-x="577" unicode="â"/>
<glyph d="M50 157q0 95 92 132q45 18 105 19h173v31q0 98 -94 118q-22 5 -47 5q-81 -1 -167 -60l-33 57q90 59 169 68q22 3 46 3q142 0 186 -99q16 -37 17 -83l1 -348h-76v81q-64 -85 -193 -85q-102 0 -151 70q-28 40 -28 91zM123 160q0 -63 63 -86q26 -10 58 -10q103 0 154 69 q16 23 23 49v63h-164q-133 -1 -134 -85zM135 632q1 112 83 113q28 0 71 -34q33 -26 50 -26q42 2 43 52h52q-1 -112 -83 -113q-32 0 -73 34q-31 26 -48 26q-42 -2 -43 -52h-52z" glyph-name="atilde" horiz-adv-x="577" unicode="ã"/>
<glyph d="M50 157q0 95 92 132q45 18 105 19h173v31q0 98 -94 118q-22 5 -47 5q-81 -1 -167 -60l-33 57q90 59 169 68q22 3 46 3q142 0 186 -99q16 -37 17 -83l1 -348h-76v81q-64 -85 -193 -85q-102 0 -151 70q-28 40 -28 91zM123 160q0 -63 63 -86q26 -10 58 -10q103 0 154 69 q16 23 23 49v63h-164q-133 -1 -134 -85zM153 684q0 35 30 48q9 3 18 3q32 0 44 -30q4 -11 4 -21q0 -36 -30 -49q-9 -3 -18 -3q-32 0 -44 31q-4 11 -4 21zM319 684q0 35 30 48q9 3 18 3q32 0 44 -30q4 -11 4 -21q0 -36 -30 -49q-9 -3 -18 -3q-32 0 -44 31q-4 11 -4 21z" glyph-name="adieresis" horiz-adv-x="577" unicode="ä"/>
<glyph d="M50 157q0 95 92 132q45 18 105 19h173v31q0 98 -94 118q-22 5 -47 5q-81 -1 -167 -60l-33 57q90 59 169 68q22 3 46 3q142 0 186 -99q16 -37 17 -83l1 -348h-76v81q-64 -85 -193 -85q-102 0 -151 70q-28 40 -28 91zM123 160q0 -63 63 -86q26 -10 58 -10q103 0 154 69 q16 23 23 49v63h-164q-133 -1 -134 -85zM169 679q0 58 50 93q30 20 65 20q59 0 95 -49q21 -30 21 -64q0 -58 -50 -93q-30 -21 -66 -21q-60 0 -94 50q-21 29 -21 64zM207 679q0 -42 39 -63q18 -10 38 -10q45 0 68 38q10 17 10 35q0 41 -39 62q-19 10 -39 10q-44 0 -67 -37 q-10 -17 -10 -35z" glyph-name="aring" horiz-adv-x="577" unicode="å"/>
<glyph d="M50 153q0 97 100 130q43 14 98 14h174v42q-1 100 -100 119q-20 4 -43 4q-87 -1 -178 -60l-22 59q110 69 215 69q138 0 186 -94l3 -6q65 91 183 99q10 1 20 1q133 0 204 -99q53 -76 51 -184h-440q8 -108 90 -156q45 -26 102 -26q100 1 163 66l43 -46q-81 -88 -211 -88 t-202 94q-15 21 -26 44q-65 -138 -231 -139q-105 0 -154 71q-25 38 -25 86zM123 160q0 -65 60 -92q28 -12 62 -12q137 2 189 135l10 -13q-6 26 -8 40l-13 3v29h-161q-118 0 -136 -68q-3 -11 -3 -22zM501 294h362q-6 101 -80 147q-42 27 -96 27q-100 0 -152 -78 q-28 -42 -34 -96z" glyph-name="ae" horiz-adv-x="979" unicode="æ"/>
<glyph d="M42 263q0 132 91 208q71 58 170 58q127 1 203 -78l-43 -55q-65 61 -157 61q-100 0 -152 -76q-35 -50 -35 -118q0 -105 74 -159q49 -36 113 -36q106 1 163 68l45 -48q-68 -81 -186 -90l-21 -48q54 -7 68 -52q3 -12 3 -24q1 -56 -50 -79q-22 -10 -47 -10q-47 1 -81 24 l17 43q25 -20 59 -20q39 0 50 31q3 8 3 16q0 30 -31 39q-9 3 -19 3q-19 0 -33 -3l33 80q-124 10 -190 105q-47 68 -47 160z" glyph-name="ccedilla" horiz-adv-x="561" unicode="ç"/>
<glyph d="M42 263q0 133 91 208q70 58 170 58q159 1 218 -127q32 -71 28 -169h-430q14 -103 98 -146q42 -22 93 -22q100 1 163 66l43 -46q-79 -88 -212 -88q-132 0 -206 93q-56 72 -56 173zM119 297h360q-5 103 -85 144q-40 21 -91 21q-102 0 -153 -78q-25 -38 -31 -87zM148 713 l80 37l120 -136h-75z" glyph-name="egrave" horiz-adv-x="588" unicode="è"/>
<glyph d="M42 263q0 133 91 208q70 58 170 58q159 1 218 -127q32 -71 28 -169h-430q14 -103 98 -146q42 -22 93 -22q100 1 163 66l43 -46q-79 -88 -212 -88q-132 0 -206 93q-56 72 -56 173zM119 297h360q-5 103 -85 144q-40 21 -91 21q-102 0 -153 -78q-25 -38 -31 -87zM244 614 l120 136l79 -38l-124 -98h-75z" glyph-name="eacute" horiz-adv-x="588" unicode="é"/>
<glyph d="M42 263q0 133 91 208q70 58 170 58q159 1 218 -127q32 -71 28 -169h-430q14 -103 98 -146q42 -22 93 -22q100 1 163 66l43 -46q-79 -88 -212 -88q-132 0 -206 93q-56 72 -56 173zM119 297h360q-5 103 -85 144q-40 21 -91 21q-102 0 -153 -78q-25 -38 -31 -87zM157 616 l102 130h76l102 -130h-68l-72 90l-72 -90h-68z" glyph-name="ecircumflex" horiz-adv-x="588" unicode="ê"/>
<glyph d="M42 263q0 133 91 208q70 58 170 58q159 1 218 -127q32 -71 28 -169h-430q14 -103 98 -146q42 -22 93 -22q100 1 163 66l43 -46q-79 -88 -212 -88q-132 0 -206 93q-56 72 -56 173zM119 297h360q-5 103 -85 144q-40 21 -91 21q-102 0 -153 -78q-25 -38 -31 -87zM166 684 q0 35 30 48q9 3 18 3q32 0 44 -30q4 -11 4 -21q0 -36 -30 -49q-9 -3 -18 -3q-32 0 -44 31q-4 11 -4 21zM332 684q0 35 30 48q9 3 18 3q32 0 44 -30q4 -11 4 -21q0 -36 -30 -49q-9 -3 -18 -3q-32 0 -44 31q-4 11 -4 21z" glyph-name="edieresis" horiz-adv-x="588" unicode="ë"/>
<glyph d="M-16 713l80 37l120 -136h-75zM95 0v527h77v-527h-77z" glyph-name="igrave" horiz-adv-x="267" unicode="ì"/>
<glyph d="M80 614l120 136l79 -38l-124 -98h-75zM95 0v527h77v-527h-77z" glyph-name="iacute" horiz-adv-x="267" unicode="í"/>
<glyph d="M-7 616l102 130h76l102 -130h-68l-72 90l-72 -90h-68zM95 0v527h77v-527h-77z" glyph-name="icircumflex" horiz-adv-x="267" unicode="î"/>
<glyph d="M2 684q0 35 30 48q9 3 18 3q32 0 44 -30q4 -11 4 -21q0 -36 -30 -49q-9 -3 -18 -3q-32 0 -44 31q-4 11 -4 21zM95 0v527h77v-527h-77zM168 684q0 35 30 48q9 3 18 3q32 0 44 -30q4 -11 4 -21q0 -36 -30 -49q-9 -3 -18 -3q-32 0 -44 31q-4 11 -4 21z" glyph-name="idieresis" horiz-adv-x="267" unicode="ï"/>
<glyph d="M46 224q0 123 91 181q57 36 136 36q101 0 161 -61q17 -17 27 -35q-39 130 -159 243l-146 -47l-13 45l117 38q-63 49 -124 80l51 41q82 -41 147 -97l126 41l14 -46l-99 -32q143 -142 162 -313q3 -24 3 -46q0 -139 -97 -209q-67 -47 -161 -47q-132 0 -196 91 q-40 58 -40 137zM121 229q0 -98 77 -138q39 -21 90 -21q105 0 149 72q21 35 21 81q0 94 -76 135q-41 22 -94 22q-106 0 -148 -73q-19 -34 -19 -78z" glyph-name="eth" horiz-adv-x="581" unicode="ð"/>
<glyph d="M95 0v527h78v-116q55 117 204 119q128 0 177 -97q23 -47 23 -108v-325h-78v304q0 103 -81 136q-31 12 -68 12q-109 -1 -155 -89q-18 -36 -22 -80v-283h-78zM191 632q1 112 83 113q28 0 71 -34q33 -26 50 -26q42 2 43 52h52q-1 -112 -83 -113q-32 0 -73 34q-31 26 -48 26 q-42 -2 -43 -52h-52z" glyph-name="ntilde" horiz-adv-x="656" unicode="ñ"/>
<glyph d="M42 264q0 132 92 207q73 58 175 58q132 0 208 -91q59 -72 59 -174q0 -133 -92 -208q-73 -59 -175 -59q-132 0 -208 91q-59 73 -59 176zM120 263q0 -106 75 -161q49 -35 114 -35q99 0 153 75q36 51 36 121q0 105 -75 159q-49 36 -114 36q-100 0 -153 -75q-36 -52 -36 -120 zM159 713l80 37l120 -136h-75z" glyph-name="ograve" horiz-adv-x="618" unicode="ò"/>
<glyph d="M42 264q0 132 92 207q73 58 175 58q132 0 208 -91q59 -72 59 -174q0 -133 -92 -208q-73 -59 -175 -59q-132 0 -208 91q-59 73 -59 176zM120 263q0 -106 75 -161q49 -35 114 -35q99 0 153 75q36 51 36 121q0 105 -75 159q-49 36 -114 36q-100 0 -153 -75q-36 -52 -36 -120 zM256 614l120 136l79 -38l-124 -98h-75z" glyph-name="oacute" horiz-adv-x="618" unicode="ó"/>
<glyph d="M42 264q0 132 92 207q73 58 175 58q132 0 208 -91q59 -72 59 -174q0 -133 -92 -208q-73 -59 -175 -59q-132 0 -208 91q-59 73 -59 176zM120 263q0 -106 75 -161q49 -35 114 -35q99 0 153 75q36 51 36 121q0 105 -75 159q-49 36 -114 36q-100 0 -153 -75q-36 -52 -36 -120 zM169 616l102 130h76l102 -130h-68l-72 90l-72 -90h-68z" glyph-name="ocircumflex" horiz-adv-x="618" unicode="ô"/>
<glyph d="M42 264q0 132 92 207q73 58 175 58q132 0 208 -91q59 -72 59 -174q0 -133 -92 -208q-73 -59 -175 -59q-132 0 -208 91q-59 73 -59 176zM120 263q0 -106 75 -161q49 -35 114 -35q99 0 153 75q36 51 36 121q0 105 -75 159q-49 36 -114 36q-100 0 -153 -75q-36 -52 -36 -120 zM160 632q1 112 83 113q28 0 71 -34q33 -26 50 -26q42 2 43 52h52q-1 -112 -83 -113q-32 0 -73 34q-31 26 -48 26q-42 -2 -43 -52h-52z" glyph-name="otilde" horiz-adv-x="618" unicode="õ"/>
<glyph d="M42 264q0 132 92 207q73 58 175 58q132 0 208 -91q59 -72 59 -174q0 -133 -92 -208q-73 -59 -175 -59q-132 0 -208 91q-59 73 -59 176zM120 263q0 -106 75 -161q49 -35 114 -35q99 0 153 75q36 51 36 121q0 105 -75 159q-49 36 -114 36q-100 0 -153 -75q-36 -52 -36 -120 zM178 684q0 35 30 48q9 3 18 3q32 0 44 -30q4 -11 4 -21q0 -36 -30 -49q-9 -3 -18 -3q-32 0 -44 31q-4 11 -4 21zM344 684q0 35 30 48q9 3 18 3q32 0 44 -30q4 -11 4 -21q0 -36 -30 -49q-9 -3 -18 -3q-32 0 -44 31q-4 11 -4 21z" glyph-name="odieresis" horiz-adv-x="618" unicode="ö"/>
<glyph d="M37 294v58h417v-58h-417zM196 153q0 36 30 49q9 3 18 3q32 0 44 -31q4 -11 4 -21q0 -35 -30 -48q-9 -3 -18 -3q-32 0 -44 30q-4 11 -4 21zM196 507q0 35 30 48q9 3 18 3q32 0 44 -30q4 -11 4 -21q0 -36 -30 -49q-9 -3 -18 -3q-32 0 -44 31q-4 11 -4 21z" glyph-name="divide" horiz-adv-x="491" unicode="÷"/>
<glyph d="M42 264q0 132 92 207q73 58 175 58q33 0 64 -6l44 138h39l-47 -148q105 -37 147 -140q20 -51 20 -109q0 -133 -92 -208q-73 -59 -175 -59q-33 0 -64 6l-48 -151h-40l52 162q-105 38 -147 141q-20 50 -20 109zM116 263q0 -109 77 -166q17 -12 36 -20l123 383q-18 4 -43 4 q-102 0 -156 -77q-37 -53 -37 -124zM265 65q19 -4 44 -4q102 0 157 78q36 52 36 124q0 108 -77 165q-18 13 -37 21z" glyph-name="oslash" horiz-adv-x="618" unicode="ø"/>
<glyph d="M77 202v325h78v-304q0 -103 79 -136q30 -12 67 -12q105 2 150 89q23 45 23 104v259h78v-527h-78v119q-53 -120 -200 -122q-124 0 -173 95q-24 47 -24 110zM171 713l80 37l120 -136h-75z" glyph-name="ugrave" horiz-adv-x="647" unicode="ù"/>
<glyph d="M77 202v325h78v-304q0 -103 79 -136q30 -12 67 -12q105 2 150 89q23 45 23 104v259h78v-527h-78v119q-53 -120 -200 -122q-124 0 -173 95q-24 47 -24 110zM267 614l120 136l79 -38l-124 -98h-75z" glyph-name="uacute" horiz-adv-x="647" unicode="ú"/>
<glyph d="M77 202v325h78v-304q0 -103 79 -136q30 -12 67 -12q105 2 150 89q23 45 23 104v259h78v-527h-78v119q-53 -120 -200 -122q-124 0 -173 95q-24 47 -24 110zM180 616l102 130h76l102 -130h-68l-72 90l-72 -90h-68z" glyph-name="ucircumflex" horiz-adv-x="647" unicode="û"/>
<glyph d="M77 202v325h78v-304q0 -103 79 -136q30 -12 67 -12q105 2 150 89q23 45 23 104v259h78v-527h-78v119q-53 -120 -200 -122q-124 0 -173 95q-24 47 -24 110zM189 684q0 35 30 48q9 3 18 3q32 0 44 -30q4 -11 4 -21q0 -36 -30 -49q-9 -3 -18 -3q-32 0 -44 31q-4 11 -4 21z M355 684q0 35 30 48q9 3 18 3q32 0 44 -30q4 -11 4 -21q0 -36 -30 -49q-9 -3 -18 -3q-32 0 -44 31q-4 11 -4 21z" glyph-name="udieresis" horiz-adv-x="647" unicode="ü"/>
<glyph d="M-6 -159l33 65q36 -25 74 -25q64 2 96 74l22 49l-218 523h82l175 -435l167 435h80l-242 -602q-51 -122 -158 -123q-63 1 -111 39zM200 614l120 136l79 -38l-124 -98h-75z" glyph-name="yacute" horiz-adv-x="502" unicode="ý"/>
<glyph d="M100 -194v936h78v-329q54 102 173 115q15 2 30 2q126 0 198 -93q55 -72 55 -175q0 -135 -89 -209q-67 -56 -162 -56q-131 0 -195 99q-6 9 -10 17v-307h-78zM178 264q0 -105 75 -160q49 -36 114 -36q99 0 152 76q36 51 36 120q0 102 -72 158q-50 38 -116 38 q-100 0 -153 -76q-36 -51 -36 -120z" glyph-name="thorn" horiz-adv-x="676" unicode="þ"/>
</font>
</defs>
</svg>
