<svg xmlns="http://www.w3.org/2000/svg" xmlns:xlink="http://www.w3.org/1999/xlink" width="35" height="35" viewBox="0 0 35 35">
  <defs>
    <style>
      .cls-1 {
        fill-rule: evenodd;
        filter: url(#filter);
      }
    </style>
    <filter id="filter" x="0" y="0" width="35" height="35" filterUnits="userSpaceOnUse">
      <feFlood result="flood" flood-color="#0095ff"/>
      <feComposite result="composite" operator="in" in2="SourceGraphic"/>
      <feBlend result="blend" in2="SourceGraphic"/>
    </filter>
  </defs>
  <path id="icon" class="cls-1" d="M2.7,4.12a0.467,0.467,0,0,0,.363-0.193,0.792,0.792,0,0,0,0-.93A0.466,0.466,0,0,0,2.7,2.8,0.466,0.466,0,0,0,2.338,3a0.792,0.792,0,0,0,0,.93A0.467,0.467,0,0,0,2.7,4.12Zm1.644,0a0.466,0.466,0,0,0,.363-0.193,0.792,0.792,0,0,0,0-.93,0.438,0.438,0,0,0-.726,0,0.792,0.792,0,0,0,0,.93A0.467,0.467,0,0,0,4.345,4.12Zm1.644,0a0.467,0.467,0,0,0,.363-0.193,0.792,0.792,0,0,0,0-.93,0.438,0.438,0,0,0-.726,0,0.792,0.792,0,0,0,0,.93A0.467,0.467,0,0,0,5.989,4.12Zm2.193,0H29.011a0.6,0.6,0,0,0,.514-0.658A0.6,0.6,0,0,0,29.011,2.8H8.182a0.6,0.6,0,0,0-.514.658A0.6,0.6,0,0,0,8.182,4.12Zm23.021,0h1.1a0.6,0.6,0,0,0,.514-0.658A0.6,0.6,0,0,0,32.3,2.8H31.2a0.6,0.6,0,0,0-.514.658A0.6,0.6,0,0,0,31.2,4.12Zm-1.1,5.7H20.241a1.881,1.881,0,0,0-1.61,2.062v0.044H18.048a1.881,1.881,0,0,0-1.61,2.062V19.65H15.273V17.5a1.88,1.88,0,0,0-1.61-2.062H4.893A1.88,1.88,0,0,0,3.283,17.5v5.615a1.88,1.88,0,0,0,1.61,2.062h8.77a1.88,1.88,0,0,0,1.61-2.062v-2.15h1.165v5.659a1.881,1.881,0,0,0,1.61,2.062h0.582V28.73a1.881,1.881,0,0,0,1.61,2.062h9.866a1.881,1.881,0,0,0,1.61-2.062v-1.4a1.881,1.881,0,0,0-1.61-2.062H20.241a1.881,1.881,0,0,0-1.61,2.062V27.37H18.048a0.68,0.68,0,0,1-.582-0.746V20.966h1.165V21.01a1.881,1.881,0,0,0,1.61,2.062h9.866a1.881,1.881,0,0,0,1.61-2.062v-1.4a1.881,1.881,0,0,0-1.61-2.062H20.241a1.881,1.881,0,0,0-1.61,2.062V19.65H17.466V13.991a0.68,0.68,0,0,1,.582-0.746h0.582v0.044a1.881,1.881,0,0,0,1.61,2.062h9.866a1.881,1.881,0,0,0,1.61-2.062v-1.4A1.881,1.881,0,0,0,30.107,9.823ZM14.246,23.115a0.68,0.68,0,0,1-.582.746H4.893a0.68,0.68,0,0,1-.582-0.746V17.5a0.68,0.68,0,0,1,.582-0.746h8.77a0.68,0.68,0,0,1,.582.746v5.615Zm5.413,4.211a0.68,0.68,0,0,1,.582-0.746h9.866a0.68,0.68,0,0,1,.582.746v1.4a0.68,0.68,0,0,1-.582.746H20.241a0.68,0.68,0,0,1-.582-0.746v-1.4Zm0-7.721a0.68,0.68,0,0,1,.582-0.746h9.866a0.68,0.68,0,0,1,.582.746v1.4a0.68,0.68,0,0,1-.582.746H20.241a0.68,0.68,0,0,1-.582-0.746v-1.4Zm11.031-6.317a0.68,0.68,0,0,1-.582.746H20.241a0.68,0.68,0,0,1-.582-0.746v-1.4a0.68,0.68,0,0,1,.582-0.746h9.866a0.68,0.68,0,0,1,.582.746v1.4ZM32.3,0H2.7C1.209,0-.006,1.552-0.006,3.462V31.538C-0.006,33.448,1.209,35,2.7,35H32.3c1.492,0,2.706-1.555,2.706-3.465V3.462C35.006,1.552,33.792,0,32.3,0ZM2.7,1.313H32.3a1.961,1.961,0,0,1,1.679,2.149v2.15H1.022V3.462A1.961,1.961,0,0,1,2.7,1.313ZM32.3,33.687H2.7a1.96,1.96,0,0,1-1.679-2.149V6.928H33.978v24.61A1.96,1.96,0,0,1,32.3,33.687Z"/>
</svg>
