<svg xmlns="http://www.w3.org/2000/svg" xmlns:xlink="http://www.w3.org/1999/xlink" width="35" height="35" viewBox="0 0 35 35">
  <defs>
    <style>
      .cls-1 {
        fill-rule: evenodd;
        filter: url(#filter);
      }
    </style>
    <filter id="filter" x="0" y="0" width="35" height="35" filterUnits="userSpaceOnUse">
      <feFlood result="flood" flood-color="#0095ff"/>
      <feComposite result="composite" operator="in" in2="SourceGraphic"/>
      <feBlend result="blend" in2="SourceGraphic"/>
    </filter>
  </defs>
  <path id="icon" class="cls-1" d="M18.222,20.8a0.887,0.887,0,0,0-1.443,0l-5.387,8.44a0.669,0.669,0,0,0,.314.967,4.893,4.893,0,0,1,2.661,4.083A0.775,0.775,0,0,0,15.19,35h4.62a0.775,0.775,0,0,0,.824-0.714A4.892,4.892,0,0,1,23.291,30.2a0.667,0.667,0,0,0,.317-0.968Zm0.81,12.776H15.968a6.213,6.213,0,0,0-2.775-4.207l3.484-5.459v2.933a0.832,0.832,0,0,0,1.647,0V23.905l3.484,5.46A6.212,6.212,0,0,0,19.032,33.572ZM34.176,0H30.729a0.775,0.775,0,0,0-.824.714V3.7a0.775,0.775,0,0,0,.824.714H31.4c-1.046,5.005-5.563,8.935-11.353,9.846V13.683a0.775,0.775,0,0,0-.824-0.714H15.776a0.775,0.775,0,0,0-.823.714v0.582C9.161,13.353,4.646,9.425,3.6,4.418H4.271A0.775,0.775,0,0,0,5.095,3.7V0.714A0.775,0.775,0,0,0,4.271,0H0.824A0.775,0.775,0,0,0,0,.714V3.7a0.775,0.775,0,0,0,.824.714H1.93A13.183,13.183,0,0,0,6.244,11.8a15.952,15.952,0,0,0,4.243,2.667H4.815a1.472,1.472,0,0,0-1.129-.5,1.316,1.316,0,0,0-1.4,1.213,1.316,1.316,0,0,0,1.4,1.214,1.473,1.473,0,0,0,1.129-.5H14.953v0.781a0.775,0.775,0,0,0,.823.714h3.448a0.775,0.775,0,0,0,.824-0.714V15.892H30.184a1.473,1.473,0,0,0,1.13.5,1.316,1.316,0,0,0,1.4-1.214,1.316,1.316,0,0,0-1.4-1.213,1.472,1.472,0,0,0-1.13.5H24.513a15.944,15.944,0,0,0,4.251-2.674A13.181,13.181,0,0,0,33.07,4.418h1.106A0.775,0.775,0,0,0,35,3.7V0.714A0.775,0.775,0,0,0,34.176,0ZM1.647,1.429h1.8V2.99h-1.8V1.429ZM18.4,15.958H16.6V14.4h1.8v1.561h0ZM33.353,2.99h-1.8V1.429h1.8V2.99Z"/>
</svg>
